<svg width="402" height="874" viewBox="0 0 402 874" fill="none" xmlns="http://www.w3.org/2000/svg">
<rect width="402" height="874" fill="black"/>
<path d="M219.83 305.59C220.647 305.595 221.267 305.828 221.672 306.282C222.055 306.713 222.239 307.336 222.219 308.132L222.205 308.193C222.192 308.222 222.171 308.246 222.145 308.263C222.119 308.28 222.088 308.288 222.057 308.288H220.398C220.346 308.288 220.296 308.267 220.259 308.231C220.222 308.195 220.2 308.145 220.199 308.093C220.2 307.67 220.07 307.434 219.809 307.383L219.689 307.372C219.347 307.372 219.125 307.583 219.119 307.951C219.112 308.361 219.344 308.734 220.004 309.374C220.872 310.19 221.221 310.913 221.204 311.867C221.177 313.411 220.127 314.41 218.531 314.41C217.716 314.41 217.093 314.191 216.678 313.761C216.258 313.324 216.066 312.683 216.106 311.855C216.108 311.813 216.125 311.773 216.155 311.743C216.185 311.714 216.225 311.698 216.267 311.698H217.983C218.007 311.7 218.03 311.705 218.052 311.715C218.091 311.736 218.121 311.771 218.135 311.813C218.14 311.833 218.141 311.853 218.137 311.873C218.118 312.171 218.171 312.394 218.288 312.518C218.328 312.559 218.376 312.592 218.43 312.613C218.484 312.633 218.541 312.642 218.599 312.639C218.916 312.639 219.102 312.414 219.109 312.024C219.115 311.687 219.007 311.39 218.427 310.792C217.676 310.058 217.003 309.3 217.024 308.108C217.026 307.774 217.096 307.445 217.229 307.139C217.362 306.833 217.556 306.557 217.798 306.327C218.312 305.845 219.014 305.59 219.83 305.59ZM214.047 305.618C214.794 305.612 215.381 305.842 215.789 306.303C216.221 306.79 216.44 307.524 216.441 308.485C216.44 308.527 216.423 308.568 216.393 308.597C216.363 308.627 216.322 308.643 216.28 308.643H214.479C214.447 308.642 214.418 308.629 214.395 308.607C214.373 308.584 214.361 308.554 214.36 308.522C214.346 307.899 214.172 307.576 213.828 307.538L213.757 307.534C213.067 307.535 212.66 308.472 212.444 308.992C212.138 309.72 211.993 310.504 212.018 311.293C212.033 311.659 212.092 312.173 212.438 312.386C212.746 312.575 213.185 312.45 213.451 312.24C213.716 312.031 213.93 311.669 214.02 311.339C214.033 311.292 214.033 311.26 214.021 311.241C214.014 311.234 214.003 311.229 213.989 311.226L213.485 311.222C213.46 311.221 213.436 311.216 213.414 311.205C213.392 311.195 213.372 311.18 213.356 311.162C213.343 311.148 213.334 311.131 213.331 311.112C213.325 311.094 213.325 311.074 213.331 311.056L213.647 309.682C213.656 309.646 213.676 309.614 213.704 309.59C213.732 309.566 213.767 309.552 213.804 309.548V309.545H216.839L216.86 309.546C216.939 309.556 216.995 309.63 216.994 309.71V309.714L216.678 311.085C216.661 311.163 216.583 311.22 216.494 311.22H216.113C216.099 311.22 216.086 311.225 216.075 311.233C216.064 311.241 216.056 311.253 216.052 311.266C215.7 312.46 215.223 313.282 214.594 313.775C214.058 314.195 213.399 314.391 212.517 314.391C211.725 314.391 211.191 314.136 210.738 313.633C210.14 312.967 209.893 311.879 210.043 310.566C210.313 308.103 211.589 305.618 214.047 305.618ZM231.016 305.75C233.026 305.75 234.03 306.662 233.999 308.461C233.962 310.569 232.678 312.119 230.745 312.477C230.469 312.526 230.192 312.548 229.912 312.545L228.978 312.541C228.963 312.542 228.948 312.548 228.938 312.558C228.927 312.569 228.921 312.583 228.92 312.598C228.92 312.608 228.922 312.618 228.928 312.627C228.934 312.635 228.941 312.642 228.95 312.648L229.744 313.062C229.809 313.097 229.834 313.152 229.82 313.226L229.613 314.159C229.596 314.237 229.533 314.282 229.442 314.282H227.739C227.714 314.281 227.69 314.276 227.668 314.267C227.646 314.256 227.626 314.241 227.61 314.223C227.597 314.209 227.589 314.191 227.584 314.173C227.58 314.154 227.58 314.135 227.585 314.116L229.481 305.875C229.5 305.789 229.581 305.751 229.653 305.751L231.016 305.75ZM227.273 305.762C227.291 305.77 227.309 305.782 227.324 305.795C227.338 305.811 227.349 305.828 227.358 305.847C227.364 305.866 227.368 305.886 227.369 305.906L227.358 314.119C227.361 314.138 227.36 314.158 227.355 314.177C227.349 314.197 227.339 314.216 227.325 314.232C227.311 314.248 227.293 314.26 227.274 314.268C227.254 314.277 227.232 314.282 227.21 314.281H225.397C225.355 314.281 225.316 314.265 225.286 314.236C225.272 314.221 225.261 314.204 225.253 314.185C225.246 314.166 225.242 314.146 225.241 314.125L225.28 313.328C225.282 313.241 225.28 313.217 225.229 313.211L225.161 313.209H223.447C223.323 313.209 223.314 313.22 223.27 313.334L222.914 314.191C222.882 314.251 222.818 314.281 222.722 314.281H220.927C220.818 314.281 220.74 314.173 220.781 314.072L224.499 305.873C224.524 305.824 224.562 305.75 224.648 305.75H227.214C227.234 305.75 227.253 305.754 227.273 305.762ZM225.5 307.985C225.492 307.953 225.466 307.956 225.445 307.998C225.43 308.028 225.417 308.059 225.405 308.091L224.121 311.274L224.105 311.322C224.103 311.329 224.103 311.335 224.104 311.341L224.111 311.358C224.115 311.363 224.12 311.367 224.126 311.37C224.131 311.373 224.137 311.375 224.143 311.376L225.215 311.39C225.334 311.38 225.34 311.374 225.352 311.253C225.354 311.21 225.506 308.022 225.5 307.985ZM230.112 307.582C230.097 307.583 230.083 307.589 230.072 307.599C230.061 307.61 230.055 307.624 230.054 307.639C230.054 307.649 230.057 307.66 230.062 307.669C230.067 307.677 230.075 307.685 230.084 307.69L230.926 308.135C230.968 308.158 230.969 308.198 230.955 308.267C230.948 308.298 230.415 310.642 230.416 310.644C230.419 310.647 230.435 310.655 230.515 310.655H230.551C231.446 310.619 231.934 309.561 231.952 308.534C231.961 307.979 231.772 307.638 231.429 307.588L231.358 307.582H230.112Z" fill="black"/>
<g clip-path="url(#clip0_216_295)">
<path d="M234.653 363.009C234.212 363.009 233.938 363.232 233.828 363.672C233.994 363.45 234.188 363.369 234.406 363.425C234.531 363.456 234.622 363.547 234.722 363.65C234.884 363.816 235.072 364.007 235.481 364.007C235.922 364.007 236.197 363.784 236.306 363.344C236.141 363.566 235.947 363.647 235.728 363.591C235.603 363.56 235.513 363.469 235.413 363.366C235.25 363.2 235.063 363.009 234.653 363.009ZM240.144 363.069V364.766H240.394V363.069L240.144 363.069ZM239.728 363.109C239.641 363.109 239.569 363.181 239.569 363.269C239.569 363.353 239.641 363.428 239.728 363.428C239.816 363.428 239.891 363.353 239.888 363.269C239.888 363.181 239.816 363.109 239.728 363.109ZM242.603 363.109C242.516 363.109 242.444 363.181 242.444 363.269C242.444 363.353 242.516 363.428 242.603 363.428C242.694 363.428 242.766 363.353 242.763 363.269C242.763 363.181 242.691 363.109 242.603 363.109ZM245.272 363.138V363.766C245.185 363.644 245.047 363.569 244.866 363.569C244.55 363.569 244.288 363.835 244.288 364.181C244.288 364.525 244.55 364.794 244.866 364.794C245.047 364.794 245.185 364.719 245.272 364.597V364.766H245.522V363.138L245.272 363.138ZM237.669 363.216L237.419 363.291V363.603H237.206V363.844H237.419V364.403C237.419 364.706 237.572 364.813 237.96 364.766V364.541C237.769 364.55 237.672 364.553 237.672 364.403V363.844H237.956V363.603H237.669V363.216ZM238.654 363.569C238.338 363.569 238.075 363.835 238.075 364.181C238.075 364.525 238.338 364.794 238.654 364.794C238.835 364.794 238.972 364.719 239.06 364.597V364.766H239.31V363.603H239.06V363.766C238.972 363.644 238.835 363.569 238.654 363.569ZM243.632 363.572C243.475 363.572 243.35 363.631 243.272 363.756V363.606H243.022V364.769H243.272V364.144C243.272 363.906 243.403 363.81 243.569 363.81C243.725 363.81 243.828 363.9 243.828 364.078V364.766H244.078V364.05C244.078 363.75 243.891 363.572 243.632 363.572ZM246.363 363.572C246.01 363.572 245.747 363.837 245.747 364.185C245.747 364.528 246.013 364.797 246.363 364.797C246.591 364.797 246.791 364.678 246.884 364.494L246.669 364.372C246.612 364.478 246.5 364.55 246.359 364.55C246.156 364.55 246 364.394 246 364.185C246 363.975 246.153 363.819 246.359 363.819C246.5 363.819 246.616 363.888 246.666 363.997L246.882 363.872C246.788 363.69 246.591 363.572 246.363 363.572ZM247.472 363.575C247.235 363.575 247.047 363.712 247.047 363.931C247.047 364.347 247.672 364.232 247.672 364.437C247.672 364.531 247.588 364.569 247.475 364.569C247.347 364.569 247.253 364.506 247.216 364.4L247 364.525C247.075 364.69 247.244 364.797 247.475 364.797C247.725 364.797 247.928 364.669 247.928 364.438C247.928 364.006 247.303 364.134 247.303 363.922C247.303 363.841 247.382 363.8 247.472 363.803C247.569 363.803 247.65 363.844 247.691 363.935L247.903 363.815C247.822 363.663 247.663 363.575 247.472 363.575ZM248.544 363.575C248.306 363.575 248.119 363.712 248.119 363.931C248.119 364.347 248.744 364.232 248.744 364.437C248.744 364.531 248.659 364.569 248.547 364.569C248.419 364.569 248.325 364.506 248.288 364.4L248.072 364.525C248.147 364.69 248.315 364.797 248.547 364.797C248.797 364.797 249 364.669 249 364.438C249 364.006 248.375 364.134 248.375 363.922C248.375 363.841 248.453 363.8 248.544 363.803C248.641 363.803 248.722 363.844 248.763 363.935L248.975 363.815C248.894 363.663 248.734 363.575 248.544 363.575ZM239.603 363.603V364.766H239.853V363.603H239.603ZM240.585 363.603L240.95 364.766H241.197L241.441 363.981L241.681 364.766H241.929L242.294 363.603H242.028L241.8 364.406L241.56 363.603H241.319L241.075 364.406L240.85 363.603H240.585H240.585ZM242.478 363.603V364.766H242.728V363.603H242.478ZM238.691 363.813C238.9 363.813 239.06 363.969 239.06 364.185C239.06 364.4 238.9 364.556 238.691 364.556C238.482 364.556 238.325 364.4 238.322 364.185C238.322 363.969 238.482 363.813 238.691 363.813ZM244.903 363.813C245.112 363.813 245.272 363.969 245.272 364.185C245.272 364.4 245.112 364.556 244.903 364.556C244.694 364.556 244.534 364.4 244.534 364.185C244.534 363.969 244.694 363.813 244.903 363.813ZM233.825 364C233.384 364 233.109 364.222 233 364.663C233.166 364.441 233.359 364.359 233.578 364.416C233.703 364.447 233.794 364.538 233.893 364.641C234.056 364.806 234.243 364.997 234.653 364.997C235.094 364.997 235.369 364.775 235.478 364.335C235.312 364.556 235.119 364.638 234.9 364.581C234.775 364.55 234.685 364.459 234.584 364.356C234.425 364.19 234.237 364 233.825 364Z" fill="black"/>
</g>
<g clip-path="url(#clip1_216_295)">
<path d="M178.843 292.244C179.151 293.393 179.524 294.291 179.924 294.915C180.404 295.61 180.935 296.269 181.512 296.885C181.733 297.092 181.861 297.324 181.919 297.541C182.002 297.851 181.9 298.212 181.582 298.63L179.983 300.455C179.755 300.716 179.501 300.884 179.254 300.95C178.945 301.033 178.594 300.96 178.21 300.764C177.673 300.427 177.169 300.038 176.706 299.603C176.256 299.159 175.788 298.652 175.257 298.029C173.61 301.531 170.963 303.77 167.315 304.748C164.718 305.444 162.446 305.254 160.532 304.17C158.618 303.086 157.313 301.306 156.648 298.823C155.941 296.185 156.294 293.795 157.748 291.676C159.201 289.556 161.49 288.078 164.674 287.225C165.725 286.943 166.832 286.746 168.018 286.595C169.204 286.444 170.445 286.377 171.757 286.325L171.149 284.059C170.517 281.7 169.582 280.188 168.365 279.482C167.118 278.785 165.324 278.767 162.943 279.405C161.861 279.695 160.781 280.117 159.712 280.703C158.643 281.289 157.621 281.929 156.656 282.653C156.219 283.003 155.882 283.226 155.682 283.347C155.482 283.467 155.336 283.539 155.212 283.572C154.779 283.688 154.479 283.436 154.305 282.784L153.897 281.263C153.764 280.766 153.726 280.377 153.823 280.119C153.919 279.86 154.139 279.568 154.514 279.235C155.446 278.386 156.62 277.573 158.035 276.794C159.442 275.985 161 275.368 162.701 274.912C166.38 273.926 169.294 274.043 171.475 275.256C173.625 276.476 175.172 278.789 176.087 282.204L178.782 292.26L178.843 292.244ZM167.555 300.326C168.575 300.052 169.576 299.584 170.589 298.913C171.603 298.243 172.409 297.295 172.994 296.14C173.331 295.418 173.528 294.667 173.513 293.872C173.499 293.077 173.382 292.144 173.099 291.088L172.75 289.785C171.751 289.807 170.754 289.886 169.764 290.019C168.767 290.155 167.78 290.353 166.808 290.612C164.736 291.167 163.329 291.976 162.534 293.088C161.738 294.199 161.559 295.511 161.975 297.063C162.366 298.522 163.028 299.509 164 300.047C164.951 300.624 166.132 300.707 167.555 300.326ZM193.28 297.025C192.724 297.174 192.328 297.181 192.022 297.03C191.725 296.91 191.392 296.533 191.049 295.993L177.354 273.947C177.002 273.375 176.801 272.997 176.743 272.78C176.61 272.283 176.782 271.937 177.277 271.805L180.307 270.993C180.894 270.835 181.321 270.821 181.596 270.98C181.893 271.1 182.195 271.485 182.538 272.025L193.238 291.181L192.556 269.341C192.544 268.679 192.622 268.225 192.819 267.973C193.017 267.721 193.416 267.48 193.973 267.331L196.446 266.669C197.033 266.511 197.461 266.496 197.766 266.647C198.063 266.767 198.396 267.144 198.678 267.7L209.135 287.188L208.911 264.958C208.93 264.288 209.039 263.826 209.205 263.582C209.403 263.33 209.771 263.098 210.328 262.949L213.203 262.178C213.698 262.046 214.043 262.22 214.184 262.747C214.226 262.902 214.237 263.066 214.255 263.26C214.274 263.455 214.279 263.72 214.247 264.095L213.225 290.084C213.206 290.755 213.097 291.217 212.9 291.469C212.702 291.721 212.334 291.953 211.808 292.094L209.149 292.807C208.562 292.964 208.135 292.979 207.829 292.828C207.524 292.677 207.199 292.331 206.909 291.744L196.752 273.007L197.347 294.272C197.359 294.934 197.281 295.388 197.092 295.671C196.903 295.955 196.495 296.164 195.939 296.313L193.28 297.025ZM233.235 287.218C231.627 287.649 229.969 287.893 228.324 287.935C226.678 287.977 225.364 287.896 224.435 287.646C223.866 287.499 223.442 287.28 223.244 287.034C223.05 286.792 222.908 286.513 222.825 286.214L222.401 284.631C222.227 283.98 222.391 283.603 222.855 283.479C223.044 283.428 223.241 283.41 223.436 283.423C223.638 283.435 223.95 283.485 224.292 283.526C225.513 283.716 226.751 283.774 227.984 283.701C229.261 283.623 230.527 283.417 231.763 283.087C233.711 282.566 235.135 281.818 236.003 280.854C236.871 279.889 237.162 278.747 236.821 277.474C236.588 276.605 236.118 275.966 235.404 275.525C234.689 275.084 233.496 274.839 231.849 274.748L226.991 274.552C224.543 274.443 222.59 273.835 221.196 272.712C219.809 271.619 218.876 270.239 218.444 268.625C218.095 267.322 218.065 266.099 218.356 264.956C218.646 263.814 219.155 262.746 219.9 261.815C220.636 260.852 221.546 260.043 222.683 259.339C223.819 258.635 225.076 258.132 226.437 257.768C227.117 257.585 227.837 257.426 228.542 257.337C229.278 257.239 229.96 257.189 230.643 257.139C231.303 257.129 231.932 257.127 232.538 257.164C233.145 257.201 233.627 257.271 233.986 257.375C234.486 257.507 234.862 257.673 235.122 257.902C235.374 258.101 235.558 258.417 235.675 258.852L236.066 260.311C236.24 260.962 236.085 261.37 235.621 261.495C235.373 261.561 234.938 261.544 234.346 261.437C232.367 261.102 230.28 261.229 228.085 261.817C226.323 262.289 225.006 262.941 224.206 263.788C223.406 264.634 223.152 265.667 223.493 266.94C223.726 267.809 224.235 268.471 225.011 268.895C225.787 269.319 227.089 269.602 228.87 269.691L233.634 269.911C236.052 270.029 237.925 270.591 239.225 271.607C240.524 272.622 241.379 273.957 241.812 275.571C242.169 276.906 242.215 278.191 241.972 279.387C241.699 280.592 241.206 281.722 240.447 282.724C239.697 283.756 238.703 284.622 237.481 285.381C236.206 286.189 234.811 286.795 233.235 287.218Z" fill="#252F3E"/>
<path d="M243.122 300.737C234.971 311.005 221.265 318.969 208.557 322.374C190.748 327.146 172.931 324.834 157.866 317.094C156.675 316.482 157.225 315.07 158.551 315.446C173.707 319.57 191.116 319.862 207.843 315.38C219.128 312.356 230.894 306.675 241.006 298.776C242.498 297.544 244.459 299.048 243.122 300.737ZM246.06 294.76C244.313 293.432 237.248 296.256 234.048 297.546C233.092 297.935 232.705 297.107 233.427 296.215C238.141 290.56 248.012 289.18 249.49 290.248C250.978 291.346 252.125 301.318 247.915 307.37C247.271 308.308 246.368 308.151 246.489 307.121C246.902 303.716 247.799 296.057 246.06 294.76Z" fill="#FF9900"/>
</g>
<g clip-path="url(#clip2_216_295)">
<path d="M383.896 527.289L363.789 502.694C361.464 499.843 357.609 498.794 354.146 500.055L233.118 537.895C229.854 538.919 228.179 542.512 229.503 545.646L233.505 555.181C234.583 557.751 237.356 559.193 240.06 558.597L378.493 528.724C383.13 527.71 386.928 532.477 384.92 536.784L385.058 536.488C386.481 533.437 386.019 529.867 383.896 527.289Z" fill="url(#paint0_linear_216_295)"/>
<path d="M337.858 626.012L306.094 626.419C302.415 626.471 299.134 624.192 297.873 620.728L249.065 503.692C247.752 500.534 249.427 496.941 252.679 495.941L262.556 492.878C265.218 492.052 268.105 493.248 269.386 495.703L335.485 620.951C337.689 625.155 343.783 625 345.791 620.694L345.653 620.989C344.23 624.041 341.198 625.982 337.858 626.012Z" fill="url(#paint1_linear_216_295)"/>
<path d="M306.123 626.431C302.444 626.483 299.163 624.204 297.902 620.74C299.452 624.998 305.386 625.249 307.291 621.164L360.52 507.013C362.425 502.928 358.418 498.544 354.161 500.093C357.625 498.833 361.468 499.906 363.804 502.733L383.898 527.291C384.941 528.558 385.604 530.094 385.81 531.723C386.016 533.351 385.756 535.004 385.06 536.491L345.623 621.064C344.212 624.091 341.179 626.032 337.828 626.087L306.123 626.431Z" fill="url(#paint2_linear_216_295)"/>
</g>
<path d="M55.5484 451.805C55.5484 451.805 52.8658 452.685 56.8514 454.025C61.0336 455.549 65.4594 456.295 69.9102 456.227C70.865 457.117 71.8944 457.923 72.9872 458.637C59.6427 461.279 45.3711 452.45 55.5479 451.807M55.4986 444.644C55.4986 444.644 52.3998 446.056 56.3998 447.349C61.829 449.197 67.5284 450.125 73.2632 450.097C73.8563 450.946 74.6184 451.664 75.5017 452.205C59.7951 453.386 44.1695 445.902 55.4996 444.639" fill="#5382A1"/>
<path d="M70.565 435.718C70.86 436.281 71.0372 436.897 71.0861 437.53C71.1349 438.164 71.0543 438.8 70.849 439.401C70.6438 440.002 70.3183 440.555 69.8924 441.026C69.4665 441.497 68.9491 441.877 68.3718 442.141C68.3718 442.141 76.8628 439.818 74.3998 434.124C72.0978 428.814 70.0662 425.985 85.375 420.98C85.375 420.98 62.8494 421.776 70.565 435.718Z" fill="#E76F00"/>
<path d="M81.746 462.66C81.746 462.66 83.204 464.49 79.2514 464.828C71.7369 465.465 49.2764 461.367 43.6471 457.349C41.622 455.904 46.0896 455.447 47.4659 455.446C48.2078 455.423 48.9494 455.496 49.6727 455.663C47.5649 453.389 32.92 455.686 41.7498 459.11C65.8285 468.454 87.5944 466.953 81.746 462.66ZM59.6499 438.118C59.6499 438.118 47.7208 438.402 54.8517 440.942C59.77 442.396 64.8077 443.41 69.9054 443.974C73.1212 444.358 76.3511 444.612 79.5874 444.737C78.5039 444.958 77.4401 445.266 76.4063 445.659C64.2259 446.237 42.2496 440.092 49.3134 438.349C52.6881 437.448 56.2293 437.368 59.6414 438.114M77.6 453.835C90.6163 450.235 86.4404 443.23 82.4907 443.213C82.0177 443.202 81.5446 443.227 81.0755 443.288C81.399 442.989 81.8054 442.794 82.2415 442.729C90.2848 441.689 93.8308 453.304 77.3007 454.091C77.4156 454.023 77.5178 453.936 77.6027 453.833" fill="#5382A1"/>
<path d="M80.2599 406.556C80.2599 406.556 85.3708 414.43 70.6003 421.729C58.7536 427.584 65.6127 433.816 66.8177 439.524C62.0333 432.924 58.6876 427.301 62.5329 423.541C68.176 418.026 80.6913 417.43 80.2675 406.553" fill="#E76F00"/>
<path d="M54.8731 466.256C65.9706 469.368 83.4887 471.921 85.0287 466.683C85.0287 466.683 83.8142 468.524 74.9607 468.328C65.2061 467.944 55.5697 466.053 46.3932 462.723C46.3932 462.723 47.5796 464.218 54.8734 466.265" fill="#5382A1"/>
<path d="M95.9727 580.438L96.1914 585.469L92.6914 592.031L87.2227 602.75L86.1289 611.719L90.0664 624.406L99.0352 629.437H112.598L125.285 619.813L130.973 604.719L117.848 588.75L114.129 579.781L95.9727 580.438Z" fill="#ECEFF1"/>
<path d="M127.035 592.906C123.535 587.875 120.691 584.812 119.16 578.469C117.629 572.125 119.598 573.875 118.285 568.406C117.629 565.562 116.535 563.594 115.441 562.062C114.129 560.531 112.598 559.656 111.723 559.437C109.754 558.344 105.16 556.594 99.4725 559.656C93.5663 562.719 94.2225 569.281 95.3163 582.625C95.3163 583.5 95.0975 584.594 94.66 585.469C93.785 587.437 92.2538 589.187 90.9413 590.719C89.41 592.906 87.8788 595.094 86.785 597.5C84.16 602.531 81.7538 608.875 82.41 611.281C83.5038 611.062 97.285 632.062 97.285 632.5C98.16 632.281 101.879 632.281 105.16 632.281C109.754 632.062 112.379 631.844 116.098 632.719C116.098 632.062 115.879 631.406 115.879 630.75C115.879 629.437 116.098 628.344 116.316 626.812C116.535 625.719 116.754 624.625 116.973 623.312C114.785 625.281 110.848 627.469 107.129 628.125C103.848 628.781 98.3788 627.687 95.7538 624.406C95.9725 624.406 96.41 624.406 96.6288 624.187C97.285 623.969 97.9413 623.75 98.16 623.312C98.8163 622.219 98.3788 621.125 97.9413 620.469C97.5038 619.812 94.2225 617.406 92.6913 616.094C91.16 614.781 90.285 614.125 89.41 613.25L87.66 611.5C87.2225 611.062 87.0038 610.625 86.785 610.406C86.3475 609.312 86.1288 608 86.3475 606.25C86.5663 603.844 87.4413 601.875 88.535 599.687C88.9725 598.812 90.0663 597.062 90.0663 597.062C90.0663 597.062 86.3475 606.25 88.3163 609.094C88.3163 609.094 88.535 606.25 89.41 603.406C90.0663 601.437 91.16 598.594 92.4725 597.062C93.785 595.531 97.0663 589.844 97.285 586.344C97.285 584.812 97.5038 583.281 97.5038 582.187C96.6288 581.312 111.941 579.125 112.816 581.531C113.035 582.406 116.098 590.281 117.848 594.437C118.723 596.406 119.816 598.156 120.473 600.344C121.129 602.75 121.566 606.031 121.566 609.312C121.566 609.969 121.566 611.062 121.348 612.156C121.785 612.156 130.316 602.969 120.254 595.312C120.254 595.312 126.379 598.156 126.598 603.844C126.816 608.437 124.848 612.156 124.41 612.812C124.629 612.812 129.004 614.781 129.223 614.781C130.098 614.781 131.848 614.125 131.848 614.125C132.066 613.469 132.723 611.719 132.723 611.062C134.254 606.031 130.535 597.937 127.035 592.906Z" fill="#263238"/>
<path d="M99.25 578.469C100.821 578.469 102.094 576.51 102.094 574.094C102.094 571.678 100.821 569.719 99.25 569.719C97.6794 569.719 96.4062 571.678 96.4062 574.094C96.4062 576.51 97.6794 578.469 99.25 578.469Z" fill="#ECEFF1"/>
<path d="M109.098 578.906C111.151 578.906 112.816 576.654 112.816 573.875C112.816 571.096 111.151 568.844 109.098 568.844C107.044 568.844 105.379 571.096 105.379 573.875C105.379 576.654 107.044 578.906 109.098 578.906Z" fill="#ECEFF1"/>
<path d="M100.842 574.393C100.66 572.954 99.8326 571.874 98.9936 571.98C98.1546 572.086 97.6218 573.338 97.8036 574.777C97.9854 576.215 98.813 577.295 99.652 577.189C100.491 577.083 101.024 575.831 100.842 574.393Z" fill="#212121"/>
<path d="M108.875 577.593C110.083 577.593 111.062 576.32 111.062 574.75C111.062 573.179 110.083 571.906 108.875 571.906C107.667 571.906 106.688 573.179 106.688 574.75C106.688 576.32 107.667 577.593 108.875 577.593Z" fill="#212121"/>
<path d="M137.964 622.875C137.089 622.437 135.557 621.781 134.245 619.813C133.589 618.719 133.807 615.656 132.714 614.344C132.057 613.469 131.182 613.906 130.964 613.906C128.995 614.344 124.401 617.406 121.339 613.906C120.901 613.469 120.245 612.812 119.151 612.812C118.057 612.812 117.62 613.25 117.182 614.125C116.745 615 116.745 615.656 116.745 617.844C116.745 619.594 116.745 621.563 116.526 623.094C116.089 626.813 115.432 629 115.432 631.188C115.432 633.594 116.089 635.125 116.964 635.781C117.62 636.438 118.714 636.875 121.12 636.875C123.526 636.875 125.057 636 126.589 634.469C127.682 633.375 128.557 632.938 131.62 630.75C134.026 629.219 137.745 627.25 138.401 626.594C138.839 626.156 139.495 625.938 139.495 624.625C139.495 623.531 138.62 623.094 137.964 622.875ZM93.9948 623.531C91.8073 620.031 91.5885 619.375 90.0573 617.188C88.7448 615 85.901 610.844 84.151 610.844C82.8385 610.844 82.1823 611.5 81.3073 612.375C80.4323 613.25 79.5573 615.219 78.026 616.312C76.7135 617.406 72.9948 617.187 72.1198 618.5C71.2448 619.812 72.9948 621.781 72.9948 625.062C72.9948 626.375 71.901 627.25 71.6823 628.125C71.4635 629.219 71.2448 629.875 71.6823 630.75C72.5573 632.063 73.651 632.5 81.0885 634.031C85.026 634.906 88.7448 637.094 91.151 637.313C93.5573 637.531 97.7135 637.313 97.7135 631.406C97.9323 627.906 95.9635 627.031 93.9948 623.531ZM98.151 583.937C96.8385 583.062 95.7448 582.187 95.7448 580.875C95.7448 579.562 96.6198 579.125 97.9323 578.031C98.151 577.813 100.557 575.625 102.964 575.625C105.37 575.625 108.214 577.156 109.307 577.594C111.276 578.031 113.245 578.469 113.026 580C112.807 582.188 112.589 582.625 110.401 583.719C108.87 584.156 106.026 586.562 104.057 586.562C103.182 586.562 101.87 586.562 100.995 586.344C100.339 586.125 99.2448 585.031 98.151 583.937Z" fill="#FFC107"/>
<path d="M97.7214 582.188C98.1589 582.625 98.8152 583.063 99.4714 583.282C99.9089 583.5 100.565 583.719 100.565 583.719H102.534C103.628 583.719 105.159 583.282 106.69 582.407C108.221 581.75 108.44 581.313 109.534 580.875C110.628 580.219 111.721 579.563 111.284 579.344C110.846 579.125 110.409 579.344 108.878 580.219C107.565 581.094 106.471 581.532 105.159 582.188C104.503 582.407 103.628 582.844 102.971 582.844H101.003C100.346 582.844 99.9089 582.625 99.2527 582.407C98.8152 582.188 98.5964 581.969 98.3777 581.969C97.9402 581.75 97.0652 580.875 96.6277 580.657C96.6277 580.657 96.1902 580.657 96.4089 580.875L97.7214 582.188ZM104.284 577.375C104.503 577.813 104.94 577.813 105.159 578.032C105.378 578.25 105.596 578.25 105.596 578.25C105.815 578.032 105.596 577.594 105.378 577.594C105.378 577.157 104.284 577.157 104.284 577.375ZM100.784 577.813C100.784 578.032 101.221 578.25 101.221 578.032C101.44 577.813 101.659 577.594 101.878 577.594C102.315 577.375 102.096 577.157 101.44 577.157C101.003 577.375 101.003 577.594 100.784 577.813Z" fill="#634703"/>
<path d="M122.004 616.531V617.187C122.441 618.062 123.535 618.281 124.41 618.281C125.723 618.281 127.035 617.406 127.691 616.531C127.691 616.312 127.91 616.094 128.129 615.875C128.566 615.219 128.785 614.781 129.004 614.562C129.004 614.562 128.785 614.344 128.785 614.125C128.566 613.687 127.91 613.25 127.035 613.031C126.379 612.812 125.285 612.594 124.848 612.594C122.879 612.375 121.785 613.031 121.129 613.687C121.129 613.687 121.348 613.687 121.348 613.906C121.785 614.344 122.004 614.781 122.004 615.437C122.223 615.875 122.004 616.094 122.004 616.531Z" fill="#455A64"/>
<g clip-path="url(#clip3_216_295)">
<path d="M283.262 290.433L298.428 361.783L369.786 346.616L369.76 346.497L348.267 332.427L326.762 318.342L340.679 296.728L354.481 275.295L283.262 290.433Z" fill="url(#paint3_linear_216_295)"/>
</g>
<g clip-path="url(#clip4_216_295)">
<path d="M171.465 179.584L172.613 180.415C174.61 182.025 175.758 183.843 176.007 185.921C178.153 185.506 180.898 185.817 182.096 186.648L183.194 187.324L182.994 187.74C182.645 188.519 182.545 188.726 182.495 188.83C180.549 192.726 176.706 192.778 174.909 192.726C170.367 204.102 160.685 210.388 147.608 210.388C141.569 210.388 136.978 208.466 133.883 204.674C129.791 199.687 129.791 193.194 130.14 191.116L130.24 190.7H166.325C168.221 190.7 169.669 190.181 170.367 189.765C169.619 188.622 169.369 187.324 169.319 186.597C169.169 184.519 169.669 182.337 170.667 180.779L171.465 179.584ZM202.731 181.996C203.134 181.996 203.475 182.131 203.754 182.401C204.033 182.671 204.173 183.012 204.173 183.424V196.271C204.173 198.412 203.422 200.224 201.921 201.707C200.402 203.207 198.591 203.958 196.486 203.958C194.363 203.958 192.551 203.207 191.051 201.707C189.55 200.206 188.799 198.394 188.799 196.271C188.799 194.148 189.55 192.337 191.051 190.836C192.551 189.335 194.363 188.584 196.486 188.585C198.307 188.585 199.913 189.147 201.304 190.273V183.424C201.304 183.012 201.439 182.671 201.709 182.401C201.979 182.131 202.32 181.996 202.731 181.996ZM213.493 188.585C215.598 188.585 217.409 189.335 218.928 190.835C219.679 191.586 220.24 192.414 220.61 193.32C220.981 194.226 221.171 195.21 221.18 196.271C221.18 198.412 220.429 200.224 218.929 201.707C217.41 203.207 215.598 203.958 213.493 203.958C211.37 203.958 209.558 203.207 208.058 201.707C206.557 200.206 205.806 198.394 205.806 196.271C205.806 194.148 206.557 192.337 208.058 190.836C209.558 189.335 211.37 188.584 213.493 188.585ZM230.473 188.585C232.404 188.585 234.074 189.207 235.483 190.451C235.812 190.744 235.977 191.105 235.977 191.536C235.977 191.948 235.842 192.291 235.572 192.565C235.302 192.84 234.961 192.977 234.549 192.977C234.209 192.98 233.879 192.863 233.616 192.647C233.149 192.254 232.66 191.956 232.147 191.755C231.635 191.554 231.077 191.454 230.473 191.453C229.805 191.453 229.178 191.579 228.592 191.831C228.019 192.074 227.498 192.423 227.055 192.86C226.613 193.298 226.261 193.818 226.019 194.391C225.767 194.976 225.641 195.603 225.641 196.271C225.641 196.939 225.767 197.566 226.019 198.152C226.261 198.724 226.613 199.244 227.055 199.682C227.498 200.119 228.019 200.469 228.592 200.712C229.178 200.963 229.805 201.089 230.473 201.089C231.077 201.089 231.635 200.991 232.147 200.794C232.66 200.597 233.145 200.302 233.602 199.908C233.859 199.716 234.161 199.616 234.508 199.606C234.92 199.606 235.261 199.741 235.531 200.011C235.801 200.281 235.936 200.622 235.936 201.034C235.936 201.437 235.785 201.789 235.483 202.091C234.065 203.335 232.394 203.958 230.473 203.958C228.35 203.958 226.538 203.207 225.037 201.707C223.537 200.206 222.786 198.394 222.786 196.271C222.786 194.148 223.537 192.337 225.037 190.836C226.538 189.335 228.35 188.585 230.473 188.585ZM239.038 181.996C239.432 181.996 239.768 182.136 240.047 182.415C240.326 182.694 240.466 183.035 240.466 183.437V194.144L248.674 188.804C248.903 188.658 249.159 188.585 249.443 188.585C249.644 188.585 249.832 188.621 250.005 188.694C250.179 188.767 250.33 188.87 250.458 189.003C250.586 189.136 250.689 189.289 250.767 189.463C250.845 189.637 250.884 189.82 250.884 190.012C250.884 190.524 250.701 190.904 250.335 191.151L244.584 194.885L250.486 201.528C250.751 201.821 250.884 202.155 250.884 202.53C250.884 202.722 250.845 202.905 250.767 203.079C250.692 203.249 250.587 203.405 250.458 203.539C250.33 203.672 250.179 203.775 250.005 203.848C249.827 203.922 249.636 203.959 249.443 203.958C249.058 203.958 248.738 203.834 248.482 203.587L242.14 196.463L240.466 197.561V202.516C240.466 202.91 240.326 203.248 240.047 203.532C239.768 203.816 239.432 203.958 239.038 203.958C238.636 203.958 238.295 203.816 238.016 203.532C237.736 203.248 237.597 202.91 237.597 202.516V183.437C237.597 183.035 237.736 182.694 238.016 182.415C238.295 182.135 238.636 181.996 239.038 181.996ZM260.122 188.584C262.227 188.584 264.039 189.335 265.558 190.835C266.308 191.576 266.871 192.402 267.246 193.313C267.621 194.223 267.809 195.209 267.809 196.271C267.809 196.683 267.669 197.023 267.39 197.293C267.111 197.563 266.77 197.698 266.367 197.698H255.497C255.648 198.193 255.88 198.659 256.183 199.078C256.479 199.488 256.838 199.85 257.246 200.148C257.656 200.447 258.11 200.681 258.592 200.842C259.081 201.006 259.591 201.089 260.122 201.089C260.726 201.089 261.28 200.997 261.783 200.814C262.286 200.631 262.753 200.357 263.183 199.99C263.448 199.766 263.783 199.64 264.13 199.634C264.542 199.634 264.883 199.769 265.153 200.039C265.423 200.308 265.558 200.649 265.558 201.061C265.558 201.464 265.42 201.807 265.146 202.091C263.727 203.335 262.053 203.957 260.122 203.957C257.999 203.957 256.187 203.207 254.687 201.706C253.186 200.206 252.436 198.394 252.436 196.271C252.436 194.148 253.186 192.336 254.687 190.835C256.187 189.335 257.999 188.584 260.122 188.584ZM277.074 188.584C277.477 188.584 277.909 188.612 278.371 188.667C278.833 188.722 279.259 188.82 279.648 188.962C280.037 189.103 280.359 189.298 280.615 189.545C280.872 189.792 281 190.112 281 190.506C281 190.707 280.961 190.895 280.883 191.069C280.808 191.239 280.703 191.394 280.574 191.529C280.446 191.661 280.295 191.764 280.121 191.837C279.943 191.911 279.752 191.948 279.559 191.947C279.385 191.947 279.183 191.897 278.955 191.796C278.378 191.567 277.751 191.453 277.074 191.453C276.406 191.453 275.78 191.579 275.194 191.831C274.608 192.082 274.098 192.425 273.663 192.86C273.229 193.295 272.886 193.805 272.634 194.39C272.382 194.976 272.256 195.603 272.256 196.271V202.53C272.256 202.923 272.117 203.26 271.838 203.539C271.558 203.818 271.222 203.957 270.829 203.957C270.426 203.957 270.085 203.818 269.806 203.539C269.527 203.259 269.388 202.923 269.388 202.53V190.012C269.388 189.618 269.527 189.282 269.806 189.003C270.086 188.724 270.427 188.585 270.829 188.585C271.222 188.585 271.559 188.724 271.838 189.003C272.117 189.282 272.256 189.618 272.256 190.012V190.286C272.928 189.746 273.684 189.319 274.494 189.024C275.299 188.731 276.159 188.584 277.074 188.584ZM196.486 191.453C195.809 191.453 195.177 191.581 194.592 191.837C194.006 192.094 193.498 192.439 193.068 192.874C192.638 193.308 192.297 193.819 192.046 194.404C191.794 194.99 191.668 195.612 191.668 196.271C191.668 196.93 191.794 197.552 192.046 198.138C192.297 198.724 192.638 199.234 193.068 199.668C193.498 200.102 194.006 200.448 194.592 200.704C195.177 200.96 195.809 201.089 196.486 201.089C197.154 201.089 197.781 200.961 198.366 200.704C198.938 200.457 199.458 200.103 199.897 199.661C200.333 199.22 200.682 198.701 200.926 198.131C201.178 197.55 201.304 196.93 201.304 196.271C201.304 195.612 201.178 194.992 200.926 194.411C200.682 193.841 200.333 193.322 199.897 192.88C199.458 192.439 198.938 192.084 198.366 191.837C197.781 191.581 197.154 191.453 196.486 191.453ZM213.493 191.453C212.816 191.453 212.185 191.581 211.599 191.837C211.013 192.094 210.505 192.439 210.075 192.874C209.645 193.308 209.304 193.819 209.053 194.404C208.801 194.99 208.675 195.612 208.675 196.271C208.675 196.93 208.801 197.552 209.053 198.138C209.304 198.723 209.645 199.233 210.075 199.668C210.505 200.103 211.013 200.448 211.599 200.704C212.185 200.961 212.816 201.089 213.493 201.089C214.161 201.089 214.788 200.961 215.374 200.704C215.946 200.457 216.465 200.103 216.904 199.661C217.34 199.22 217.689 198.701 217.934 198.131C218.185 197.55 218.311 196.93 218.311 196.271C218.311 195.612 218.185 194.992 217.934 194.411C217.689 193.841 217.34 193.322 216.904 192.88C216.465 192.439 215.946 192.084 215.374 191.837C214.788 191.581 214.161 191.453 213.493 191.453ZM260.122 191.453C259.601 191.453 259.093 191.535 258.599 191.7C258.113 191.86 257.655 192.094 257.24 192.393C256.828 192.69 256.466 193.052 256.169 193.464C255.867 193.881 255.639 194.348 255.497 194.843H264.748C264.596 194.348 264.362 193.881 264.055 193.464C263.755 193.054 263.394 192.693 262.984 192.393C262.574 192.094 262.12 191.861 261.639 191.7C261.15 191.535 260.638 191.452 260.122 191.453ZM139.623 184.466V189.661H134.133V184.467L139.623 184.466ZM146.111 184.466V189.661H140.621V184.467L146.111 184.466ZM152.6 184.466V189.661H147.109V184.467L152.6 184.466ZM159.088 184.466V189.661H153.598V184.467L159.088 184.466ZM165.576 184.466V189.661H160.086V184.467L165.576 184.466ZM159.088 178.233V183.428H153.598V178.233L159.088 178.233ZM152.6 178.233V183.428H147.109V178.233L152.6 178.233ZM146.111 178.233V183.428H140.621V178.233L146.111 178.233ZM159.088 172V177.194H153.598V172H159.088Z" fill="#2396ED"/>
</g>
<g clip-path="url(#clip5_216_295)">
<path d="M246.499 135.736C246.47 135.555 246.442 135.375 246.412 135.195C245.644 130.564 244.147 126.084 241.977 121.922C239.852 117.844 237.11 114.118 233.847 110.877C231.465 108.508 228.824 106.414 225.973 104.636C225.99 104.608 226.005 104.577 226.022 104.549C226.917 103.003 227.815 101.458 228.71 99.9106L231.337 95.3804C231.967 94.2967 232.596 93.2103 233.222 92.1266C233.37 91.8689 233.489 91.6035 233.576 91.3303C233.876 90.3997 233.832 89.3925 233.452 88.4918C233.378 88.3161 233.292 88.146 233.194 87.9815C232.847 87.4014 232.361 86.9171 231.78 86.5726C231.25 86.259 230.657 86.0683 230.045 86.0145C229.789 85.9931 229.531 85.9954 229.276 86.0214C229.065 86.0432 228.855 86.0813 228.647 86.1358C228.129 86.273 227.643 86.511 227.218 86.8363C226.792 87.1615 226.435 87.5675 226.167 88.0311C225.538 89.1151 224.909 90.2012 224.282 91.2849L221.655 95.8155C220.76 97.3623 219.862 98.907 218.967 100.454C218.869 100.623 218.77 100.791 218.673 100.962C218.537 100.908 218.402 100.854 218.267 100.802C213.33 98.9199 207.975 97.8903 202.377 97.8903C202.224 97.8903 202.072 97.8903 201.918 97.8923C196.941 97.9419 192.158 98.8075 187.697 100.361C187.182 100.54 186.672 100.73 186.165 100.93C186.074 100.772 185.98 100.614 185.891 100.456C184.995 98.9091 184.097 97.3644 183.202 95.8175L180.576 91.2866C179.946 90.2029 179.317 89.1183 178.69 88.0328C178.303 87.3628 177.732 86.8173 177.045 86.4602C176.359 86.1031 175.584 85.9492 174.813 86.0166C174.199 86.0685 173.606 86.2597 173.077 86.5754C172.495 86.9199 172.01 87.404 171.663 87.9839C171.566 88.1482 171.479 88.3191 171.406 88.4946C171.026 89.3952 170.981 90.4022 171.279 91.3331C171.369 91.6055 171.485 91.8718 171.634 92.129C172.264 93.2128 172.893 94.2974 173.52 95.3828C174.396 96.8931 175.272 98.4033 176.147 99.9134C177.042 101.46 177.939 103.005 178.834 104.552C178.841 104.565 178.85 104.578 178.857 104.591C177.055 105.71 175.336 106.955 173.711 108.318C170.805 110.758 168.219 113.555 166.015 116.644C164.814 118.327 163.732 120.092 162.777 121.927C161.129 125.088 159.867 128.436 159.018 131.898C158.752 132.99 158.526 134.091 158.342 135.2C158.312 135.379 158.284 135.561 158.256 135.741C158.156 136.39 158.071 137.041 158 137.694H246.747C246.676 137.039 246.591 136.387 246.492 135.74L246.499 135.736Z" fill="#34A853"/>
<path d="M225.456 125.42C227.232 124.238 227.49 121.503 226.032 119.312C224.575 117.12 221.954 116.302 220.179 117.484C218.403 118.666 218.145 121.401 219.603 123.592C221.06 125.784 223.681 126.602 225.456 125.42ZM185.218 123.6C186.676 121.409 186.417 118.674 184.642 117.492C182.866 116.31 180.246 117.128 178.788 119.319C177.331 121.511 177.589 124.246 179.364 125.428C181.14 126.61 183.761 125.792 185.218 123.6Z" fill="#202124"/>
</g>
<g clip-path="url(#clip6_216_295)">
<path d="M111.791 294.672C106.451 316.12 84.7439 329.14 63.3289 323.802C41.9089 318.502 28.8614 296.742 34.2114 275.35C39.5389 253.907 61.2589 240.86 82.6614 246.197C104.094 251.55 117.141 273.245 111.791 294.687V294.672ZM90.6314 279.297C91.4239 273.997 87.3739 271.135 81.8289 269.207L83.6289 262.03L79.2389 260.922L77.4964 267.955C76.3489 267.655 75.1539 267.395 73.9539 267.122L75.7014 260.025L71.2989 258.932L69.5014 266.145L66.7014 265.482L60.6614 263.97L59.4889 268.672C59.4889 268.672 62.7464 269.412 62.6664 269.452C64.4539 269.91 64.7764 271.065 64.7264 272.005L59.8039 291.742C59.5564 292.292 58.9964 293.1 57.7614 292.785C57.8014 292.847 54.5589 291.992 54.5589 291.992L52.3589 297.015L58.0614 298.435L61.1589 299.242L59.3489 306.55L63.7514 307.63L65.5614 300.402C66.7589 300.742 67.9039 301.04 69.0489 301.315L67.3589 308.487L71.7589 309.595L73.5689 302.292C81.0414 303.71 86.6689 303.15 89.0389 296.38C90.9389 290.922 88.9314 287.787 84.9889 285.73C87.8264 285.077 89.9889 283.19 90.5864 279.297H90.6314ZM80.5914 293.372C79.2514 298.84 70.0714 295.872 67.0914 295.13L69.4989 285.47C72.4814 286.237 82.0114 287.707 80.5914 293.372ZM81.9614 279.232C80.7214 284.205 73.0914 281.692 70.6039 281.065L72.7939 272.265C75.2664 272.862 83.2464 274.007 81.9614 279.217V279.232Z" fill="#F5C021"/>
</g>
<g clip-path="url(#clip7_216_295)">
<path d="M196.291 491.83C226.573 491.83 251.121 467.282 251.121 437C251.121 406.718 226.573 382.17 196.291 382.17C166.009 382.17 141.461 406.718 141.461 437C141.461 467.282 166.009 491.83 196.291 491.83Z" fill="#0B3D91"/>
<path d="M193.045 392.089C193.385 392.089 193.647 392.351 193.647 392.691C193.647 393.031 193.385 393.293 193.045 393.293C192.705 393.293 192.443 393.031 192.443 392.691C192.443 392.351 192.705 392.089 193.045 392.089ZM199.352 392.927C199.693 392.927 199.954 393.188 199.954 393.529C199.954 393.869 199.693 394.131 199.352 394.131C199.012 394.131 198.75 393.869 198.75 393.529C198.75 393.188 199.012 392.927 199.352 392.927ZM207.649 404.076C207.989 404.076 208.251 404.338 208.251 404.678C208.251 405.018 207.989 405.28 207.649 405.28C207.309 405.28 207.047 405.018 207.047 404.678C207.047 404.338 207.309 404.076 207.649 404.076ZM162.241 461.445C162.581 461.445 162.843 461.706 162.843 462.047C162.843 462.387 162.581 462.648 162.241 462.648C161.9 462.648 161.639 462.387 161.639 462.047C161.639 461.706 161.9 461.445 162.241 461.445ZM163.837 466.365C164.177 466.365 164.439 466.627 164.439 466.967C164.439 467.307 164.177 467.569 163.837 467.569C163.497 467.569 163.235 467.307 163.235 466.967C163.235 466.627 163.497 466.365 163.837 466.365ZM156.221 462.308C156.483 462.308 156.692 462.518 156.692 462.779C156.692 463.041 156.483 463.25 156.221 463.25C155.959 463.25 155.75 463.041 155.75 462.779C155.75 462.518 155.959 462.308 156.221 462.308ZM181.215 471.966C181.477 471.966 181.686 472.175 181.686 472.437C181.686 472.698 181.477 472.908 181.215 472.908C180.954 472.908 180.744 472.698 180.744 472.437C180.744 472.175 180.954 471.966 181.215 471.966ZM220.421 463.826C220.682 463.826 220.892 464.036 220.892 464.297C220.892 464.559 220.682 464.768 220.421 464.768C220.159 464.768 219.95 464.559 219.95 464.297C219.95 464.036 220.159 463.826 220.421 463.826ZM231.805 451.447C232.067 451.447 232.277 451.656 232.277 451.918C232.277 452.18 232.067 452.389 231.805 452.389C231.544 452.389 231.334 452.18 231.334 451.918C231.334 451.656 231.544 451.447 231.805 451.447ZM175.955 407.792C176.216 407.792 176.426 408.002 176.426 408.263C176.426 408.525 176.216 408.734 175.955 408.734C175.693 408.734 175.484 408.525 175.484 408.263C175.484 408.002 175.693 407.792 175.955 407.792ZM188.491 398.58C188.753 398.58 188.962 398.789 188.962 399.051C188.962 399.313 188.753 399.522 188.491 399.522C188.229 399.522 188.02 399.313 188.02 399.051C188.02 398.789 188.229 398.58 188.491 398.58ZM187.13 397.69C187.392 397.69 187.601 397.899 187.601 398.161C187.601 398.423 187.392 398.632 187.13 398.632C186.868 398.632 186.659 398.423 186.659 398.161C186.659 397.899 186.868 397.69 187.13 397.69ZM185.9 396.774C186.162 396.774 186.371 396.983 186.371 397.245C186.371 397.507 186.162 397.716 185.9 397.716C185.638 397.716 185.429 397.507 185.429 397.245C185.429 396.983 185.638 396.774 185.9 396.774ZM177.944 410.174C178.205 410.174 178.415 410.383 178.415 410.645C178.415 410.907 178.205 411.116 177.944 411.116C177.682 411.116 177.473 410.907 177.473 410.645C177.473 410.383 177.682 410.174 177.944 410.174ZM196.395 386.2C196.657 386.2 196.866 386.41 196.866 386.672C196.866 386.933 196.657 387.143 196.395 387.143C196.133 387.143 195.924 386.933 195.924 386.672C195.924 386.41 196.133 386.2 196.395 386.2ZM199.431 399.496C199.693 399.496 199.902 399.705 199.902 399.967C199.902 400.229 199.693 400.438 199.431 400.438C199.169 400.438 198.96 400.229 198.96 399.967C198.96 399.705 199.169 399.496 199.431 399.496ZM194.641 396.905C194.903 396.905 195.112 397.114 195.112 397.376C195.112 397.638 194.903 397.847 194.641 397.847C194.38 397.847 194.17 397.638 194.17 397.376C194.17 397.114 194.38 396.905 194.641 396.905ZM186.45 400.412C186.711 400.412 186.921 400.621 186.921 400.883C186.921 401.145 186.711 401.354 186.45 401.354C186.188 401.354 185.979 401.145 185.979 400.883C185.979 400.621 186.188 400.412 186.45 400.412ZM222.593 475.97C222.855 475.97 223.064 476.179 223.064 476.441C223.064 476.703 222.855 476.912 222.593 476.912C222.331 476.912 222.122 476.703 222.122 476.441C222.122 476.179 222.331 475.97 222.593 475.97ZM161.455 464.69C161.717 464.69 161.927 464.899 161.927 465.161C161.927 465.423 161.717 465.632 161.455 465.632C161.194 465.632 160.984 465.423 160.984 465.161C160.984 464.899 161.194 464.69 161.455 464.69ZM193.49 470.631C193.752 470.631 193.961 470.84 193.961 471.102C193.961 471.364 193.752 471.573 193.49 471.573C193.228 471.573 193.019 471.364 193.019 471.102C193.019 470.84 193.228 470.631 193.49 470.631ZM170.982 464.323C171.244 464.323 171.453 464.533 171.453 464.795C171.453 465.056 171.244 465.266 170.982 465.266C170.72 465.266 170.511 465.056 170.511 464.795C170.511 464.533 170.72 464.323 170.982 464.323ZM174.986 470.814C175.248 470.814 175.457 471.023 175.457 471.285C175.457 471.547 175.248 471.756 174.986 471.756C174.725 471.756 174.515 471.547 174.515 471.285C174.515 471.023 174.725 470.814 174.986 470.814ZM204.325 466.731C204.587 466.731 204.796 466.941 204.796 467.202C204.796 467.464 204.587 467.673 204.325 467.673C204.063 467.673 203.854 467.464 203.854 467.202C203.854 466.941 204.063 466.731 204.325 466.731ZM220.499 457.597C220.761 457.597 220.97 457.807 220.97 458.068C220.97 458.33 220.761 458.54 220.499 458.54C220.237 458.54 220.028 458.33 220.028 458.068C220.028 457.807 220.237 457.597 220.499 457.597ZM232.748 463.198C233.009 463.198 233.219 463.407 233.219 463.669C233.219 463.931 233.009 464.14 232.748 464.14C232.486 464.14 232.277 463.931 232.277 463.669C232.277 463.407 232.486 463.198 232.748 463.198ZM236.935 465.868C237.197 465.868 237.406 466.077 237.406 466.339C237.406 466.6 237.197 466.81 236.935 466.81C236.673 466.81 236.464 466.6 236.464 466.339C236.464 466.077 236.673 465.868 236.935 465.868ZM237.616 458.566C237.877 458.566 238.087 458.775 238.087 459.037C238.087 459.298 237.877 459.508 237.616 459.508C237.354 459.508 237.145 459.298 237.145 459.037C237.145 458.775 237.354 458.566 237.616 458.566ZM176.661 448.254C176.923 448.254 177.132 448.463 177.132 448.725C177.132 448.987 176.923 449.196 176.661 449.196C176.4 449.196 176.19 448.987 176.19 448.725C176.19 448.463 176.4 448.254 176.661 448.254ZM176.818 458.697C177.159 458.697 177.42 458.958 177.42 459.298C177.42 459.639 177.159 459.9 176.818 459.9C176.478 459.9 176.216 459.639 176.216 459.298C176.216 458.958 176.478 458.697 176.818 458.697ZM180.509 466.47C180.849 466.47 181.111 466.731 181.111 467.072C181.111 467.412 180.849 467.673 180.509 467.673C180.168 467.673 179.907 467.412 179.907 467.072C179.907 466.731 180.168 466.47 180.509 466.47ZM224.687 458.356C225.027 458.356 225.289 458.618 225.289 458.958C225.289 459.298 225.027 459.56 224.687 459.56C224.346 459.56 224.085 459.298 224.085 458.958C224.085 458.618 224.346 458.356 224.687 458.356ZM240.573 457.466C240.913 457.466 241.175 457.728 241.175 458.068C241.175 458.409 240.913 458.67 240.573 458.67C240.233 458.67 239.971 458.409 239.971 458.068C239.971 457.728 240.233 457.466 240.573 457.466ZM232.721 454.09C233.062 454.09 233.323 454.352 233.323 454.692C233.323 455.032 233.062 455.294 232.721 455.294C232.381 455.294 232.12 455.032 232.12 454.692C232.12 454.352 232.381 454.09 232.721 454.09ZM224.687 454.431C225.027 454.431 225.289 454.692 225.289 455.032C225.289 455.373 225.027 455.634 224.687 455.634C224.346 455.634 224.085 455.373 224.085 455.032C224.085 454.692 224.346 454.431 224.687 454.431ZM208.12 392.325L209.638 392.168L208.12 392.089C208.068 391.801 207.832 391.566 207.544 391.513L207.387 389.995L207.309 391.54C207.021 391.592 206.811 391.827 206.785 392.115L205.215 392.246L206.785 392.325C206.838 392.586 207.047 392.796 207.335 392.848L207.466 394.418L207.544 392.848C207.832 392.822 208.068 392.586 208.12 392.325ZM182.314 409.336L183.832 409.179L182.314 409.101C182.262 408.813 182.027 408.577 181.739 408.525L181.582 407.007L181.503 408.551C181.215 408.604 181.006 408.839 180.98 409.127L179.409 409.258L180.98 409.336C181.032 409.598 181.241 409.807 181.529 409.86L181.66 411.43L181.739 409.86C182.053 409.834 182.262 409.624 182.314 409.336ZM239.474 454.326L240.992 454.169L239.474 454.09C239.421 453.802 239.186 453.567 238.898 453.515L238.741 451.997L238.662 453.541C238.375 453.593 238.165 453.829 238.139 454.116L236.569 454.247L238.139 454.326C238.191 454.588 238.401 454.797 238.689 454.849L238.82 456.42L238.898 454.849C239.186 454.823 239.421 454.614 239.474 454.326ZM177.159 477.854L178.677 477.697L177.159 477.619C177.106 477.331 176.871 477.095 176.583 477.043L176.426 475.525L176.347 477.069C176.059 477.122 175.85 477.357 175.824 477.645L174.254 477.776L175.824 477.854C175.876 478.116 176.086 478.325 176.373 478.378L176.504 479.948L176.583 478.378C176.871 478.352 177.106 478.116 177.159 477.854ZM234.606 466.365L236.124 466.208L234.606 466.129C234.554 465.841 234.318 465.606 234.03 465.554L233.873 464.036L233.795 465.58C233.507 465.632 233.297 465.868 233.271 466.156L231.701 466.286L233.271 466.365C233.323 466.627 233.533 466.836 233.821 466.888L233.952 468.459L234.03 466.888C234.344 466.862 234.554 466.653 234.606 466.365Z" fill="white"/>
<path d="M209.296 423.862C202.911 426.348 196.708 428.546 191.447 430.195C180.795 433.545 151.614 442.575 134 453.959L135.466 454.535C146.196 448.463 153.184 446.553 159.884 444.459C167.186 442.156 190.767 436.634 201.445 433.65C205.057 432.629 209.27 431.295 213.746 429.698C212.699 428.259 211.6 426.793 210.448 425.327C210.082 424.83 209.689 424.333 209.296 423.862ZM217.07 434.592C215.525 435.639 214.243 436.477 213.327 437C208.093 440.036 182.523 457.493 176.686 461.497C170.876 465.501 154.728 480.759 149.965 485.182L149.808 486.988C165.145 473.222 169.934 469.82 176.032 465.187C183.57 459.455 199.168 448.83 204.481 445.427C209.558 442.182 214.112 439.198 218.221 436.45C218.143 436.346 218.09 436.215 218.012 436.11C217.724 435.613 217.41 435.116 217.07 434.592ZM241.043 409.31C233.584 413.681 221.807 418.968 210.396 423.443C210.657 423.783 210.945 424.123 211.207 424.464C212.489 426.06 213.693 427.683 214.819 429.305C223.796 426.008 233.636 421.559 241.462 416.193C237.745 419.727 225.445 428.913 217.933 434.043C218.326 434.671 218.692 435.299 219.059 435.927C230.417 428.311 238.086 422.71 242.535 418.968C248.685 413.812 262.687 402.244 268.026 386.75C258.657 398.632 247.612 405.437 241.043 409.31Z" fill="#FC3D21"/>
<path d="M189.224 450.583C188.02 449.065 186.345 447.024 185.089 445.453C183.414 443.334 181.87 441.214 180.43 439.068C179.959 439.172 179.514 439.303 179.043 439.408C180.77 442.077 182.681 444.773 184.748 447.39C186.266 449.301 187.654 450.845 188.36 451.787C188.491 451.97 188.779 452.415 189.171 452.991C189.616 452.703 190.061 452.389 190.506 452.075C190.087 451.604 189.643 451.107 189.224 450.583ZM198.07 458.592C197.075 457.65 194.668 456.079 192.155 453.724C191.605 454.116 191.056 454.483 190.48 454.875C192.103 457.152 194.301 459.953 196.029 460.764C198.62 461.994 199.326 459.796 198.07 458.592ZM211.208 424.464C196.866 406.431 179.357 396.512 171.82 402.505C165.957 407.164 168.365 420.773 176.452 435.063C176.871 434.932 177.289 434.775 177.682 434.645C169.516 420.721 167.292 407.766 172.814 403.369C179.75 397.847 196.552 407.792 210.449 425.301C213.328 428.939 215.867 432.577 218.013 436.11C226.231 449.693 228.743 461.994 223.064 467.019C221.337 468.563 216.024 469.165 209.062 466.025C208.957 466.155 209.114 466.47 209.245 466.548C215.239 468.956 220.996 469.872 223.902 467.569C230.889 462.046 225.524 442.496 211.208 424.464ZM149.73 426.584H158.917L166.611 439.643V429.436C166.611 428.285 165.146 426.793 164.648 426.557H171.008C170.616 426.662 169.359 428.18 169.359 429.436V444.433C169.359 445.349 170.694 446.631 171.322 447.128H162.476L154.651 433.99V444.328C154.651 445.349 155.645 446.343 156.692 447.181H149.94C150.908 446.762 151.824 445.48 151.903 444.459C151.981 443.438 151.903 430.221 151.903 429.646C151.903 428.389 150.699 427.369 149.73 426.584ZM233.69 447.155H245.912C245.232 446.998 244.473 446.186 244.08 445.113C243.661 444.04 237.197 426.584 237.197 426.584H232.564C231.256 427.526 229.843 428.52 228.325 429.593C228.325 429.62 228.325 429.672 228.298 429.698C228.089 430.928 224.451 444.093 224.242 444.747C223.928 445.637 222.357 446.657 221.729 447.181H228.298C227.644 446.448 227.121 445.715 227.225 444.904C227.356 444.093 227.723 442.444 227.723 442.444H234.527C234.841 443.255 235.077 443.988 235.182 444.695C235.312 445.532 234.449 446.474 233.69 447.155ZM228.325 439.827L230.628 432.315L233.664 439.827H228.325ZM227.304 427.343C227.644 427.107 227.984 426.845 228.325 426.584H226.545C226.702 426.767 226.99 427.002 227.304 427.343ZM180.587 444.904C180.718 444.093 181.084 442.444 181.084 442.444H187.889C188.203 443.255 188.439 443.988 188.543 444.695C188.674 445.532 187.837 446.474 187.078 447.128H197.834C198.07 446.971 198.279 446.841 198.515 446.684C198.096 446.317 197.704 445.768 197.468 445.113C197.049 444.04 190.585 426.584 190.585 426.584H179.933C180.456 427.055 181.922 428.337 181.686 429.698C181.477 430.928 177.839 444.093 177.63 444.747C177.316 445.637 175.745 446.657 175.117 447.181H181.686C181.006 446.448 180.482 445.715 180.587 444.904ZM183.989 432.341L187.025 439.853H181.686L183.989 432.341ZM217.725 436.791C215.71 438.125 213.616 439.512 211.365 440.978C212.36 441.475 213.171 442.077 213.25 442.862C213.38 444.328 210.423 445.061 207.727 444.747C207.178 444.695 206.654 444.537 206.157 444.354C205.607 444.721 205.032 445.087 204.456 445.453C203.88 445.82 203.173 446.291 202.362 446.814V448.934C202.886 447.887 204.063 446.945 204.953 446.893C205.346 446.867 206.707 448.123 212.255 447.809C214.951 447.652 220.185 444.773 220.107 441.449C220.107 439.512 219.086 437.968 217.725 436.791ZM202.388 441.92V444.093C202.886 443.752 203.357 443.438 203.854 443.124C203.095 442.601 202.571 442.103 202.388 441.92ZM215.814 435.43C215.291 435.116 214.768 434.854 214.27 434.618C211.653 433.388 208.905 433.153 208.329 431.504C207.937 430.326 209.062 429.253 211.862 429.279C214.637 429.332 217.228 430.98 217.934 431.582V426.296C217.725 426.505 216.835 427.526 215.998 427.369C214.427 427.028 211.732 426.61 208.67 426.636C205.136 426.662 202.1 429.384 202.022 432.812C201.891 437.628 205.738 438.937 207.911 439.696C208.146 439.774 208.382 439.853 208.67 439.957C210.763 438.596 212.412 437.55 213.354 437C213.982 436.634 214.82 436.084 215.814 435.43Z" fill="white"/>
</g>
<g clip-path="url(#clip8_216_295)">
<path d="M330.099 427.635C332.313 427.165 334.857 428.446 335.525 431.591L335.534 431.631C336.198 434.757 334.419 436.977 332.186 437.452C330.616 437.786 329.464 437.214 328.612 436.474L329.319 439.799C329.38 440.08 329.328 440.374 329.175 440.618C329.021 440.862 328.778 441.036 328.497 441.104L328.462 441.112C327.879 441.236 327.294 440.858 327.17 440.277L324.964 429.899C324.821 429.323 325.202 428.739 325.781 428.595L325.801 428.591C326.083 428.53 326.378 428.581 326.623 428.733C326.867 428.886 327.042 429.128 327.11 429.407L327.118 429.442L327.254 430.083C327.75 428.951 328.57 427.96 330.099 427.635ZM358.751 421.524C360.256 421.204 361.396 421.753 362.302 422.563L362.346 422.603L362.21 421.962L362.203 421.927C362.152 421.65 362.209 421.365 362.364 421.128C362.518 420.892 362.756 420.723 363.031 420.657L363.066 420.649L363.086 420.645C363.683 420.539 364.257 420.9 364.381 421.485L364.387 421.52L365.784 428.091C366.121 429.674 365.949 430.946 365.33 431.894C364.668 432.935 363.425 433.618 361.715 433.981C360.447 434.251 359.14 434.236 357.873 433.918C357.486 433.875 357.167 433.566 357.087 433.185C357 432.68 357.322 432.214 357.825 432.107C357.966 432.077 358.091 432.072 358.224 432.106C359.216 432.419 360.273 432.445 361.28 432.231C363.111 431.842 363.97 430.738 363.709 429.014C363.228 430.016 362.408 431.007 360.838 431.341C358.626 431.811 356.127 430.536 355.432 427.478L355.412 427.385L355.403 427.345C354.735 424.2 356.538 421.995 358.751 421.524ZM350.171 423.411C352.304 422.957 353.834 424.119 354.298 426.303L355.376 431.371C355.519 431.948 355.154 432.507 354.575 432.651L354.535 432.66C353.956 432.804 353.37 432.426 353.227 431.849L352.286 427.421C351.975 425.959 351.071 425.272 349.763 425.55C348.516 425.815 347.818 426.884 348.128 428.347L349.061 432.734C349.092 432.877 349.094 433.023 349.068 433.166C349.041 433.31 348.987 433.446 348.907 433.568C348.827 433.69 348.724 433.795 348.604 433.877C348.483 433.96 348.347 434.017 348.204 434.047C348.062 434.078 347.914 434.081 347.771 434.055C347.627 434.029 347.49 433.974 347.368 433.895C347.245 433.816 347.14 433.714 347.057 433.594C346.975 433.474 346.917 433.339 346.888 433.196L345.294 425.599C345.15 425.022 345.531 424.439 346.11 424.295L346.131 424.291C346.413 424.229 346.708 424.28 346.952 424.433C347.197 424.586 347.372 424.828 347.439 425.107L347.447 425.142L347.541 425.582C347.972 424.444 348.975 423.623 350.171 423.411ZM320.222 429.756C321.273 429.553 322.335 429.6 323.362 429.884C323.719 429.976 323.984 430.234 324.06 430.594C324.162 431.075 323.845 431.561 323.362 431.664L323.342 431.668C323.201 431.698 323.052 431.688 322.898 431.658C322.133 431.423 321.342 431.361 320.548 431.487C319.703 431.667 319.305 432.17 319.416 432.691L319.424 432.731C319.574 433.432 320.66 433.495 321.843 433.62L321.94 433.629L322.037 433.638C322.151 433.648 322.265 433.661 322.379 433.675L322.478 433.688C323.771 433.861 325.057 434.295 325.365 435.74L325.373 435.78C325.795 437.764 324.454 439.075 322.502 439.49C321.209 439.743 319.861 439.632 318.641 439.138C318.345 439.033 318.125 438.787 318.081 438.482C317.979 438.001 318.276 437.519 318.759 437.417L318.779 437.412C318.94 437.378 319.109 437.384 319.267 437.434C320.192 437.824 321.201 437.923 322.176 437.758C323.101 437.561 323.56 437.045 323.428 436.424L323.419 436.384C323.261 435.643 322.204 435.616 321.025 435.511C320.902 435.502 320.778 435.492 320.653 435.481L320.559 435.472C319.214 435.341 317.822 434.99 317.479 433.375L317.471 433.335C317.092 431.552 318.351 430.154 320.222 429.756ZM342.87 424.984C343.153 424.922 343.448 424.973 343.692 425.126C343.937 425.279 344.112 425.521 344.179 425.8L344.187 425.834L345.801 433.427C345.929 434.028 345.544 434.592 344.94 434.72C344.336 434.848 343.771 434.466 343.648 433.885L342.034 426.292C341.89 425.715 342.271 425.132 342.85 424.988L342.87 424.984ZM341.126 426.276L341.16 426.436C341.271 426.957 341.002 427.475 340.516 427.662C339.022 428.252 338.261 429.816 338.657 431.68L339.317 434.785C339.444 435.386 339.06 435.949 338.456 436.078C337.884 436.199 337.314 435.857 337.176 435.297L337.168 435.262L337.163 435.242L335.57 427.645C335.426 427.069 335.807 426.485 336.386 426.341L336.406 426.337C336.689 426.276 336.984 426.327 337.228 426.479C337.473 426.632 337.648 426.874 337.715 427.153L337.723 427.188L337.834 427.708C337.764 426.886 338.922 425.802 339.868 425.601C340.403 425.445 340.971 425.743 341.126 426.276ZM330.016 429.621C328.547 429.934 327.519 431.43 327.898 433.213L327.907 433.253C328.29 435.056 329.833 435.984 331.302 435.672C332.772 435.359 333.756 433.957 333.36 432.093L333.352 432.053C332.964 430.23 331.485 429.309 330.016 429.621ZM359.655 423.301C358.201 423.61 357.23 425.026 357.585 426.823L357.597 426.879L357.605 426.919C358.001 428.782 359.456 429.688 360.945 429.371C362.419 429.058 363.441 427.589 363.071 425.815L363.059 425.76L363.051 425.72C362.672 423.937 361.124 422.988 359.655 423.301ZM343.415 422.104L343.424 422.144C343.455 422.286 343.457 422.433 343.43 422.576C343.404 422.719 343.349 422.856 343.27 422.978C343.19 423.1 343.087 423.205 342.966 423.287C342.846 423.369 342.71 423.427 342.567 423.457C342.424 423.488 342.277 423.49 342.133 423.464C341.989 423.438 341.852 423.384 341.73 423.305C341.608 423.226 341.502 423.123 341.42 423.003C341.338 422.883 341.28 422.748 341.25 422.606C341.189 422.325 341.241 422.031 341.395 421.787C341.548 421.543 341.792 421.369 342.072 421.301L342.107 421.293C342.686 421.149 343.271 421.527 343.415 422.104ZM294.285 433.007C297.357 428.46 303.557 427.247 308.121 430.318C308.425 429.667 308.655 428.969 308.78 428.272C310.8 431.738 312.209 434.705 312.442 437.189C312.736 439.262 312.348 441.396 311.352 443.241C308.76 448.064 302.712 449.894 297.875 447.321L297.781 447.268L297.765 447.261C297.711 447.238 297.659 447.209 297.611 447.174L297.598 447.164L297.444 447.077C297.302 447 297.159 446.922 297.026 446.83L296.961 446.782C292.4 443.731 291.214 437.555 294.285 433.007ZM298.507 445.741C298.085 445.538 297.57 445.689 297.365 446.11C297.186 446.476 297.278 446.913 297.584 447.154L297.598 447.164L297.781 447.268L297.798 447.275C298.195 447.429 298.654 447.285 298.858 446.91L298.874 446.878C299.079 446.457 298.908 445.949 298.507 445.741ZM308.893 429.295C308.334 431.613 306.179 433.746 304.132 434.705C303.344 435.077 302.569 435.294 301.81 435.495L301.583 435.556C300.563 435.826 299.574 436.096 298.627 436.712C294.706 439.242 295.86 444.273 298.437 444.919L298.595 444.969C298.595 444.969 300.074 444.335 301.581 443.583L301.716 443.516L301.784 443.482L301.918 443.413C302.546 443.093 303.16 442.759 303.654 442.449C306.214 440.837 308.736 437.662 309.121 434.524C309.245 437.68 307.234 441.185 304.883 443.088C303.628 444.109 302.575 444.5 300.431 445.793C300.274 445.89 300.12 445.992 299.971 446.1L300.01 446.087L300.087 446.059L300.163 446.033C300.661 445.861 301.112 445.732 301.112 445.732C304.359 444.875 309.74 444.861 311.458 441.167C313.223 437.4 310.739 432.442 308.893 429.295Z" fill="#6DB33F"/>
<path d="M298.507 445.742C298.909 445.949 299.08 446.457 298.875 446.878C298.67 447.298 298.155 447.45 297.733 447.246C297.311 447.043 297.16 446.53 297.365 446.11C297.57 445.689 298.085 445.538 298.507 445.742ZM308.893 429.295C310.74 432.442 313.224 437.4 311.459 441.167C309.741 444.861 304.359 444.875 301.113 445.732C301.113 445.732 300.538 445.896 299.971 446.1C299.971 446.1 300.172 445.953 300.432 445.793C302.576 444.5 303.629 444.109 304.884 443.088C307.235 441.185 309.245 437.68 309.121 434.523C308.737 437.662 306.214 440.837 303.654 442.449C303.196 442.737 302.634 443.045 302.053 443.344L301.919 443.413C300.304 444.237 298.595 444.969 298.595 444.969L298.437 444.919C295.86 444.273 294.707 439.242 298.628 436.712C300.346 435.593 302.202 435.617 304.133 434.704C306.179 433.746 308.334 431.613 308.893 429.295Z" fill="white"/>
</g>
<g clip-path="url(#clip9_216_295)">
<path d="M371.833 159.994L373.016 158.218C373.865 158.794 375.321 160.173 375.321 162.555C375.321 165.514 373.032 167.718 370.12 167.718C367.02 167.718 364.918 165.491 364.918 162.805C364.918 160.103 367.067 158.779 368.227 158.35L368.819 158.117L371.7 165.078C372.744 164.549 373.273 163.723 373.273 162.555C373.273 161.387 372.697 160.578 371.833 159.994ZM369.956 165.452L368.025 160.803C367.379 161.06 366.919 161.823 366.919 162.735C366.919 163.895 367.947 165.507 369.956 165.452Z" fill="#FF302F"/>
<path d="M359.617 171.074V168.832H374.848V171.074H359.617Z" fill="#20B15A"/>
<path d="M365.323 174.609V172.445H374.574C378.413 172.445 379.993 174.711 379.993 177.389C379.993 179.912 378.296 181.431 376.918 181.999L376.092 180.014C376.941 179.655 377.945 178.791 377.945 177.389C377.945 175.669 376.879 174.609 374.885 174.609H374.138V174.687C374.761 175.201 375.321 176.182 375.321 177.428C375.321 180.029 373.055 182.412 370.135 182.412C367.199 182.412 364.91 180.029 364.91 177.428C364.91 176.19 365.463 175.201 366.07 174.687V174.609H365.323ZM370.135 174.454C368.297 174.454 366.958 175.676 366.958 177.234C366.958 178.807 368.297 180.13 370.135 180.13C371.949 180.13 373.265 178.807 373.265 177.234C373.273 175.676 371.949 174.454 370.135 174.454" fill="#3686F7"/>
<path d="M370.096 194.723C373.094 194.723 375.298 197.059 375.298 199.925C375.298 202.79 373.086 205.126 370.096 205.126C367.083 205.126 364.887 202.79 364.887 199.925C364.887 197.059 367.083 194.723 370.096 194.723ZM370.096 196.997C368.227 196.997 366.942 198.352 366.942 199.925C366.942 201.497 368.227 202.852 370.096 202.852C371.949 202.852 373.25 201.497 373.25 199.925C373.25 198.352 371.949 196.997 370.096 196.997Z" fill="#FF302F"/>
<path d="M370.12 183.362C373.118 183.362 375.321 185.698 375.321 188.564C375.321 191.429 373.117 193.765 370.12 193.765C367.106 193.765 364.918 191.429 364.918 188.564C364.918 185.698 367.098 183.362 370.12 183.362ZM370.12 185.644C368.251 185.644 366.966 186.998 366.966 188.571C366.966 190.144 368.251 191.499 370.12 191.499C371.973 191.499 373.273 190.144 373.273 188.571C373.273 186.991 371.965 185.644 370.12 185.644Z" fill="#FFBA40"/>
<path d="M373.04 213.676C373.04 216.939 370.408 219.493 367.145 219.493C363.883 219.493 361.251 216.939 361.251 213.676C361.251 211.916 361.944 210.632 362.831 209.682L361.266 208.116C359.997 209.44 359.031 211.208 359.031 213.676C359.031 218.146 362.676 221.907 367.145 221.907C371.615 221.907 375.259 218.146 375.259 213.676C375.259 211.262 374.465 209.44 372.985 208.015C371.521 206.551 369.466 206.1 367.799 206.1C367.278 206.1 366.74 206.162 366.343 206.232V213.676H368.508V208.373C369.863 208.529 370.79 208.957 371.42 209.588C372.191 210.351 373.04 211.558 373.04 213.676Z" fill="#3686F7"/>
</g>
<defs>
<linearGradient id="paint0_linear_216_295" x1="287.205" y1="581.879" x2="331.576" y2="486.725" gradientUnits="userSpaceOnUse">
<stop stop-color="#116FAF"/>
<stop offset="0.319" stop-color="#247BB5"/>
<stop offset="0.708" stop-color="#3585BB"/>
<stop offset="1" stop-color="#3B89BD"/>
</linearGradient>
<linearGradient id="paint1_linear_216_295" x1="273.154" y1="612.007" x2="317.525" y2="516.853" gradientUnits="userSpaceOnUse">
<stop stop-color="#027BCC"/>
<stop offset="1" stop-color="#3093D6"/>
</linearGradient>
<linearGradient id="paint2_linear_216_295" x1="316.488" y1="632.213" x2="374.891" y2="506.967" gradientUnits="userSpaceOnUse">
<stop stop-color="#229DF0"/>
<stop offset="1" stop-color="#4FB1F3"/>
</linearGradient>
<linearGradient id="paint3_linear_216_295" x1="298.219" y1="363.293" x2="354.941" y2="274.881" gradientUnits="userSpaceOnUse">
<stop stop-color="#7C4DFF"/>
<stop offset="0.5" stop-color="#D500F9"/>
<stop offset="1" stop-color="#EF5350"/>
</linearGradient>
<clipPath id="clip0_216_295">
<rect width="16" height="16" fill="white" transform="translate(233 356)"/>
</clipPath>
<clipPath id="clip1_216_295">
<rect width="96.6667" height="57.7734" fill="white" transform="translate(147 279.019) rotate(-15)"/>
</clipPath>
<clipPath id="clip2_216_295">
<rect width="139.011" height="139.011" fill="white" transform="translate(268.75 457) rotate(25)"/>
</clipPath>
<clipPath id="clip3_216_295">
<rect width="97" height="97" fill="white" transform="translate(269 281.167) rotate(-12)"/>
</clipPath>
<clipPath id="clip4_216_295">
<rect width="151" height="38.6348" fill="white" transform="translate(130 172)"/>
</clipPath>
<clipPath id="clip5_216_295">
<rect width="88.7467" height="52" fill="white" transform="translate(158 86)"/>
</clipPath>
<clipPath id="clip6_216_295">
<rect width="80" height="80" fill="white" transform="translate(33 245)"/>
</clipPath>
<clipPath id="clip7_216_295">
<rect width="134" height="134" fill="white" transform="translate(134 370)"/>
</clipPath>
<clipPath id="clip8_216_295">
<rect width="74" height="20" fill="white" transform="translate(290.73 430.911) rotate(-12)"/>
</clipPath>
<clipPath id="clip9_216_295">
<rect width="64" height="21" fill="white" transform="matrix(0 -1 1 0 359 222)"/>
</clipPath>
</defs>
</svg>
