<svg width="65" height="65" viewBox="0 0 65 65" fill="none" xmlns="http://www.w3.org/2000/svg">
<path d="M22.7504 16.8999C24.4743 16.8999 26.1276 17.5847 27.3466 18.8037C28.5656 20.0227 29.2504 21.676 29.2504 23.3999C29.2504 24.6024 28.8929 25.7074 28.3404 26.6499C28.3404 26.6499 26.0004 25.9999 22.7504 25.9999C19.5004 25.9999 17.1604 26.6499 17.1604 26.6499C16.6079 25.7074 16.2504 24.6024 16.2504 23.3999C16.2504 21.676 16.9352 20.0227 18.1542 18.8037C19.3732 17.5847 21.0265 16.8999 22.7504 16.8999ZM42.2504 16.8999C45.8579 16.8999 48.7504 19.7924 48.7504 23.3999C48.7504 24.6024 48.3929 25.7074 47.8404 26.6499C47.8404 26.6499 45.5004 25.9999 42.2504 25.9999C39.0004 25.9999 36.6604 26.6499 36.6604 26.6499C36.1079 25.7074 35.7504 24.6024 35.7504 23.3999C35.7504 19.7924 38.6429 16.8999 42.2504 16.8999ZM32.5004 61.4249C38.3955 61.4296 44.1443 59.5894 48.941 56.1624C53.7376 52.7354 57.3417 47.8933 59.2479 42.3149L54.9579 40.8199C51.6754 50.4399 42.6404 56.8749 32.5004 56.8749C22.3604 56.8749 13.3254 50.4399 10.0429 40.8199L5.75293 42.3149C7.65917 47.8933 11.2632 52.7354 16.0599 56.1624C20.8565 59.5894 26.6053 61.4296 32.5004 61.4249Z" fill="black"/>
</svg>
