<svg width="16" height="16" viewBox="0 0 16 16" fill="none" xmlns="http://www.w3.org/2000/svg">
<g clip-path="url(#clip0_170_72)">
<path d="M2.00039 12.5H14.0004C14.6504 11.625 15.1254 10.6 15.3504 9.5H0.650391C0.875391 10.6 1.35039 11.625 2.00039 12.5Z" fill="#FFCE31"/>
<path d="M14 12.5H2C3.375 14.325 5.55 15.5 8 15.5C10.45 15.5 12.625 14.325 14 12.5Z" fill="#83BF4F"/>
<path d="M0.5 8C0.5 8.525 0.55 9.025 0.65 9.5H8V0.5C3.85 0.5 0.5 3.85 0.5 8Z" fill="#ED4C5C"/>
<path d="M8 0.5V3.5H14C12.625 1.675 10.45 0.5 8 0.5Z" fill="#83BF4F"/>
<path d="M14 3.5H8V6.5H15.35C15.125 5.4 14.65 4.375 14 3.5Z" fill="#FFCE31"/>
<path d="M15.35 6.5H8V9.5H15.35C15.45 9.025 15.5 8.525 15.5 8C15.5 7.2125 15.45 6.975 15.35 6.5Z" fill="#83BF4F"/>
<path d="M4.5 6.825L6.2 8L5.55 6.1L7.25 4.9H5.15L4.5 3L3.85 4.9H1.75L3.45 6.1L2.8 8L4.5 6.825Z" fill="white"/>
</g>
<defs>
<clipPath id="clip0_170_72">
<rect width="16" height="16" fill="white"/>
</clipPath>
</defs>
</svg>
