<svg width="248" height="65" viewBox="0 0 248 65" fill="none" xmlns="http://www.w3.org/2000/svg">
<path d="M29.3956 27.1842C29.3956 28.6348 29.2308 30.036 28.9011 31.3877C28.5714 32.7394 28.1428 33.8521 27.6153 34.7257L23.3624 32.8465C23.8404 32.0223 24.2278 31.1075 24.5245 30.1019C24.8048 29.0799 24.9449 28.0908 24.9449 27.1348C24.9449 26.5743 24.9119 26.1375 24.846 25.8243C24.7636 25.4946 24.6564 25.2556 24.5245 25.1072C24.3762 24.9588 24.2031 24.8847 24.0053 24.8847C23.6921 24.8847 23.4448 25.0578 23.2635 25.4039C23.0822 25.7501 22.9338 26.2116 22.8184 26.7886C22.6865 27.3491 22.5547 27.9672 22.4228 28.6431C22.2744 29.3189 22.0849 30.003 21.8541 30.6954C21.6233 31.3712 21.3184 31.9976 20.9392 32.5746C20.5601 33.135 20.0656 33.5883 19.4556 33.9345C18.8292 34.2807 18.0545 34.4538 17.1314 34.4538C16.0599 34.4538 15.0873 34.157 14.2137 33.5636C13.3235 32.9537 12.6147 32.0553 12.0872 30.8684C11.5597 29.6651 11.296 28.1733 11.296 26.393C11.296 25.2226 11.4196 24.0687 11.6668 22.9313C11.9141 21.7939 12.2932 20.7719 12.8043 19.8652L17.0325 21.6208C16.6039 22.478 16.2824 23.3104 16.0681 24.1181C15.8538 24.9094 15.7467 25.6842 15.7467 26.4424C15.7467 27.0029 15.7961 27.448 15.895 27.7776C15.994 28.1073 16.1258 28.3464 16.2907 28.4947C16.4555 28.6266 16.6368 28.6925 16.8346 28.6925C17.1314 28.6925 17.3704 28.5194 17.5517 28.1733C17.7166 27.8271 17.8567 27.3738 17.9721 26.8133C18.0874 26.2364 18.2111 25.61 18.343 24.9341C18.4748 24.2418 18.6562 23.5577 18.8869 22.8818C19.1177 22.206 19.4227 21.5878 19.8018 21.0274C20.1809 20.4504 20.6755 19.9889 21.2854 19.6427C21.8953 19.2965 22.6536 19.1234 23.5602 19.1234C24.6152 19.1234 25.5878 19.4284 26.4779 20.0383C27.3516 20.6317 28.0604 21.5219 28.6044 22.7087C29.1319 23.8956 29.3956 25.3874 29.3956 27.1842Z" fill="black"/>
<path d="M19.5221 34.7373C20.9727 34.7373 22.3739 34.9021 23.7256 35.2318C25.0773 35.5615 26.19 35.9901 27.0636 36.5176L25.1844 40.7705C24.3602 40.2925 23.4453 39.9051 22.4398 39.6084C21.4178 39.3281 20.4287 39.188 19.4727 39.188C18.9122 39.188 18.4754 39.221 18.1622 39.2869C17.8325 39.3693 17.5935 39.4765 17.4451 39.6084C17.2967 39.7567 17.2226 39.9298 17.2226 40.1276C17.2226 40.4408 17.3956 40.6881 17.7418 40.8694C18.088 41.0507 18.5495 41.1991 19.1265 41.3145C19.6869 41.4464 20.3051 41.5782 20.981 41.7101C21.6568 41.8585 22.3409 42.048 23.0332 42.2788C23.7091 42.5096 24.3355 42.8145 24.9124 43.1937C25.4729 43.5728 25.9262 44.0674 26.2724 44.6773C26.6186 45.3037 26.7916 46.0784 26.7916 47.0015C26.7916 48.073 26.4949 49.0456 25.9015 49.9192C25.2916 50.8094 24.3932 51.5182 23.2063 52.0457C22.003 52.5732 20.5112 52.837 18.7309 52.837C17.5605 52.837 16.4066 52.7133 15.2692 52.4661C14.1318 52.2188 13.1097 51.8397 12.2031 51.3286L13.9587 47.1004C14.8159 47.529 15.6483 47.8505 16.456 48.0648C17.2473 48.2791 18.022 48.3862 18.7803 48.3862C19.3408 48.3862 19.7859 48.3368 20.1155 48.2379C20.4452 48.139 20.6842 48.0071 20.8326 47.8422C20.9645 47.6774 21.0304 47.4961 21.0304 47.2983C21.0304 47.0015 20.8573 46.7625 20.5112 46.5812C20.165 46.4164 19.7117 46.2762 19.1512 46.1608C18.5743 46.0455 17.9479 45.9218 17.272 45.79C16.5797 45.6581 15.8956 45.4768 15.2197 45.246C14.5439 45.0152 13.9257 44.7102 13.3652 44.3311C12.7883 43.952 12.3267 43.4574 11.9806 42.8475C11.6344 42.2376 11.4613 41.4793 11.4613 40.5727C11.4613 39.5177 11.7663 38.5451 12.3762 37.655C12.9696 36.7813 13.8598 36.0725 15.0466 35.5285C16.2335 35.001 17.7253 34.7373 19.5221 34.7373Z" fill="black"/>
<circle cx="21.1736" cy="8.71848" r="8.71848" fill="black"/>
<path d="M40.558 11.13H44.644V14.928L47.704 11.13H52.564L48.046 16.548L52.834 24H48.154L45.346 19.392L44.644 20.202V24H40.558V11.13ZM55.627 17.574C55.627 18.702 55.861 19.56 56.329 20.148C56.809 20.736 57.451 21.03 58.255 21.03C59.059 21.03 59.695 20.736 60.163 20.148C60.643 19.56 60.883 18.702 60.883 17.574C60.883 16.446 60.643 15.588 60.163 15C59.695 14.4 59.059 14.1 58.255 14.1C57.451 14.1 56.809 14.4 56.329 15C55.861 15.588 55.627 16.446 55.627 17.574ZM51.451 17.574C51.451 16.53 51.613 15.594 51.937 14.766C52.261 13.938 52.717 13.236 53.305 12.66C53.905 12.084 54.625 11.64 55.465 11.328C56.305 11.016 57.241 10.86 58.273 10.86C59.305 10.86 60.235 11.016 61.063 11.328C61.903 11.628 62.617 12.072 63.205 12.66C63.805 13.236 64.261 13.938 64.573 14.766C64.897 15.594 65.059 16.53 65.059 17.574C65.059 18.618 64.897 19.554 64.573 20.382C64.261 21.21 63.811 21.912 63.223 22.488C62.635 23.064 61.921 23.508 61.081 23.82C60.241 24.12 59.305 24.27 58.273 24.27C57.241 24.27 56.305 24.12 55.465 23.82C54.625 23.508 53.905 23.064 53.305 22.488C52.717 21.912 52.261 21.21 51.937 20.382C51.613 19.554 51.451 18.618 51.451 17.574ZM65.9408 11.13H70.2248L73.7888 17.808V11.13H77.8748V24H73.5188L70.0268 17.772V24H65.9408V11.13ZM78.9662 11.13H83.0522V14.928L86.1122 11.13H90.9722L86.4542 16.548L91.2422 24H86.5622L83.7542 19.392L83.0522 20.202V24H78.9662V11.13ZM99.0003 18.978L97.8483 15.018L96.6783 18.978H99.0003ZM95.1123 11.13H100.602L104.796 24H100.458L99.9003 22.074H95.7783L95.2023 24H90.9003L95.1123 11.13ZM40.558 34.13H44.644V37.928L47.704 34.13H52.564L48.046 39.548L52.834 47H48.154L45.346 42.392L44.644 43.202V47H40.558V34.13ZM55.8513 42.032C55.8513 42.74 55.9893 43.28 56.2653 43.652C56.5533 44.024 56.9673 44.21 57.5073 44.21C58.0473 44.21 58.4553 44.024 58.7313 43.652C59.0193 43.28 59.1633 42.74 59.1633 42.032C59.1633 41.348 59.0193 40.82 58.7313 40.448C58.4553 40.064 58.0473 39.872 57.5073 39.872C56.9673 39.872 56.5533 40.064 56.2653 40.448C55.9893 40.82 55.8513 41.348 55.8513 42.032ZM51.8553 42.032C51.8553 41.252 51.9873 40.544 52.2513 39.908C52.5273 39.26 52.9113 38.708 53.4033 38.252C53.8953 37.796 54.4893 37.442 55.1853 37.19C55.8813 36.938 56.6553 36.812 57.5073 36.812C58.3593 36.812 59.1333 36.938 59.8293 37.19C60.5253 37.442 61.1193 37.796 61.6113 38.252C62.1033 38.708 62.4813 39.26 62.7453 39.908C63.0213 40.544 63.1593 41.252 63.1593 42.032C63.1593 42.824 63.0213 43.544 62.7453 44.192C62.4813 44.828 62.1033 45.374 61.6113 45.83C61.1193 46.286 60.5253 46.64 59.8293 46.892C59.1333 47.144 58.3593 47.27 57.5073 47.27C56.6553 47.27 55.8813 47.144 55.1853 46.892C54.4893 46.64 53.8953 46.286 53.4033 45.83C52.9113 45.374 52.5273 44.828 52.2513 44.192C51.9873 43.544 51.8553 42.824 51.8553 42.032ZM63.9524 33.77H67.9124V39.566L70.2884 37.082H75.1304L71.2064 40.988L75.2204 47H70.6664L68.4344 43.31L67.9124 43.85V47H63.9524V33.77ZM78.2458 42.032C78.2458 42.74 78.3838 43.28 78.6598 43.652C78.9478 44.024 79.3618 44.21 79.9018 44.21C80.4418 44.21 80.8498 44.024 81.1258 43.652C81.4138 43.28 81.5578 42.74 81.5578 42.032C81.5578 41.348 81.4138 40.82 81.1258 40.448C80.8498 40.064 80.4418 39.872 79.9018 39.872C79.3618 39.872 78.9478 40.064 78.6598 40.448C78.3838 40.82 78.2458 41.348 78.2458 42.032ZM74.2498 42.032C74.2498 41.252 74.3818 40.544 74.6458 39.908C74.9218 39.26 75.3058 38.708 75.7978 38.252C76.2898 37.796 76.8838 37.442 77.5798 37.19C78.2758 36.938 79.0498 36.812 79.9018 36.812C80.7538 36.812 81.5278 36.938 82.2238 37.19C82.9198 37.442 83.5138 37.796 84.0058 38.252C84.4978 38.708 84.8758 39.26 85.1398 39.908C85.4158 40.544 85.5538 41.252 85.5538 42.032C85.5538 42.824 85.4158 43.544 85.1398 44.192C84.8758 44.828 84.4978 45.374 84.0058 45.83C83.5138 46.286 82.9198 46.64 82.2238 46.892C81.5278 47.144 80.7538 47.27 79.9018 47.27C79.0498 47.27 78.2758 47.144 77.5798 46.892C76.8838 46.64 76.2898 46.286 75.7978 45.83C75.3058 45.374 74.9218 44.828 74.6458 44.192C74.3818 43.544 74.2498 42.824 74.2498 42.032ZM86.3109 37.082H90.2709V42.302C90.2709 42.938 90.3429 43.388 90.4869 43.652C90.6309 43.904 90.9009 44.03 91.2969 44.03C91.6689 44.03 91.9509 43.904 92.1429 43.652C92.3349 43.4 92.4309 42.95 92.4309 42.302V37.082H96.3909V47H92.7009L92.6289 45.218C92.3769 45.986 91.9869 46.52 91.4589 46.82C90.9429 47.12 90.3489 47.27 89.6769 47.27C88.6569 47.27 87.8409 46.946 87.2289 46.298C86.6169 45.638 86.3109 44.702 86.3109 43.49V37.082ZM104.383 43.814C104.383 44.054 104.461 44.24 104.617 44.372C104.773 44.504 105.025 44.57 105.373 44.57C105.901 44.57 106.321 44.408 106.633 44.084C106.945 43.748 107.101 43.256 107.101 42.608V42.482L105.409 42.878C105.085 42.95 104.833 43.058 104.653 43.202C104.473 43.346 104.383 43.55 104.383 43.814ZM100.387 44.552C100.387 43.652 100.693 42.968 101.305 42.5C101.929 42.032 102.817 41.684 103.969 41.456L107.101 40.826V40.772C107.101 40.328 106.987 40.01 106.759 39.818C106.531 39.614 106.219 39.512 105.823 39.512C105.355 39.512 105.025 39.638 104.833 39.89C104.653 40.13 104.551 40.478 104.527 40.934H100.567C100.627 40.178 100.801 39.536 101.089 39.008C101.377 38.48 101.755 38.054 102.223 37.73C102.691 37.406 103.231 37.172 103.843 37.028C104.455 36.884 105.109 36.812 105.805 36.812C107.425 36.812 108.673 37.166 109.549 37.874C110.437 38.57 110.881 39.638 110.881 41.078V47H107.191L107.137 45.722C106.825 46.166 106.381 46.538 105.805 46.838C105.229 47.126 104.527 47.27 103.699 47.27C103.303 47.27 102.907 47.222 102.511 47.126C102.127 47.042 101.773 46.898 101.449 46.694C101.137 46.49 100.879 46.214 100.675 45.866C100.483 45.506 100.387 45.068 100.387 44.552ZM111.8 37.082H115.49L115.562 38.864C115.814 38.096 116.198 37.562 116.714 37.262C117.242 36.962 117.842 36.812 118.514 36.812C119.534 36.812 120.35 37.142 120.962 37.802C121.574 38.45 121.88 39.38 121.88 40.592V47H117.92V41.78C117.92 41.144 117.848 40.7 117.704 40.448C117.56 40.184 117.29 40.052 116.894 40.052C116.522 40.052 116.24 40.178 116.048 40.43C115.856 40.682 115.76 41.132 115.76 41.78V47H111.8V37.082ZM123.813 40.142H122.553V37.082H123.813V34.796H127.773V37.082H130.473V40.142H127.773V42.698C127.773 42.986 127.815 43.22 127.899 43.4C127.983 43.568 128.091 43.7 128.223 43.796C128.367 43.88 128.529 43.94 128.709 43.976C128.901 44 129.093 44.012 129.285 44.012C129.681 44.012 130.077 43.976 130.473 43.904V46.964C129.981 47.06 129.519 47.132 129.087 47.18C128.655 47.24 128.235 47.27 127.827 47.27C126.495 47.27 125.493 46.94 124.821 46.28C124.149 45.608 123.813 44.51 123.813 42.986V40.142ZM134.883 42.032C134.883 42.74 135.021 43.28 135.297 43.652C135.585 44.024 135.999 44.21 136.539 44.21C137.079 44.21 137.487 44.024 137.763 43.652C138.051 43.28 138.195 42.74 138.195 42.032C138.195 41.348 138.051 40.82 137.763 40.448C137.487 40.064 137.079 39.872 136.539 39.872C135.999 39.872 135.585 40.064 135.297 40.448C135.021 40.82 134.883 41.348 134.883 42.032ZM130.887 42.032C130.887 41.252 131.019 40.544 131.283 39.908C131.559 39.26 131.943 38.708 132.435 38.252C132.927 37.796 133.521 37.442 134.217 37.19C134.913 36.938 135.687 36.812 136.539 36.812C137.391 36.812 138.165 36.938 138.861 37.19C139.557 37.442 140.151 37.796 140.643 38.252C141.135 38.708 141.513 39.26 141.777 39.908C142.053 40.544 142.191 41.252 142.191 42.032C142.191 42.824 142.053 43.544 141.777 44.192C141.513 44.828 141.135 45.374 140.643 45.83C140.151 46.286 139.557 46.64 138.861 46.892C138.165 47.144 137.391 47.27 136.539 47.27C135.687 47.27 134.913 47.144 134.217 46.892C133.521 46.64 132.927 46.286 132.435 45.83C131.943 45.374 131.559 44.828 131.283 44.192C131.019 43.544 130.887 42.824 130.887 42.032ZM142.984 37.082H146.944V47H142.984V37.082ZM142.984 33.77H146.944V36.542H142.984V33.77ZM147.888 37.082H151.578L151.65 38.864C151.902 38.096 152.286 37.562 152.802 37.262C153.33 36.962 153.93 36.812 154.602 36.812C155.622 36.812 156.438 37.142 157.05 37.802C157.662 38.45 157.968 39.38 157.968 40.592V47H154.008V41.78C154.008 41.144 153.936 40.7 153.792 40.448C153.648 40.184 153.378 40.052 152.982 40.052C152.61 40.052 152.328 40.178 152.136 40.43C151.944 40.682 151.848 41.132 151.848 41.78V47H147.888V37.082ZM158.73 42.032C158.73 41.252 158.862 40.544 159.126 39.908C159.402 39.26 159.786 38.708 160.278 38.252C160.77 37.796 161.364 37.442 162.06 37.19C162.756 36.938 163.53 36.812 164.382 36.812C165.246 36.812 166.014 36.938 166.686 37.19C167.37 37.442 167.946 37.802 168.414 38.27C168.882 38.738 169.236 39.302 169.476 39.962C169.728 40.61 169.854 41.336 169.854 42.14V42.86H162.798C162.894 43.352 163.074 43.73 163.338 43.994C163.602 44.258 163.944 44.39 164.364 44.39C164.964 44.39 165.402 44.12 165.678 43.58H169.836C169.524 44.72 168.888 45.62 167.928 46.28C166.98 46.94 165.798 47.27 164.382 47.27C163.53 47.27 162.756 47.144 162.06 46.892C161.364 46.64 160.77 46.286 160.278 45.83C159.786 45.374 159.402 44.828 159.126 44.192C158.862 43.544 158.73 42.824 158.73 42.032ZM165.948 41.222C165.852 40.73 165.672 40.352 165.408 40.088C165.144 39.824 164.802 39.692 164.382 39.692C163.962 39.692 163.614 39.824 163.338 40.088C163.074 40.352 162.894 40.73 162.798 41.222H165.948ZM177.791 42.356C177.923 43.52 178.517 44.102 179.573 44.102C179.969 44.102 180.293 44.036 180.545 43.904C180.797 43.76 180.923 43.538 180.923 43.238C180.923 43.106 180.899 42.986 180.851 42.878C180.803 42.77 180.701 42.668 180.545 42.572C180.389 42.476 180.155 42.386 179.843 42.302C179.543 42.206 179.141 42.104 178.637 41.996C177.773 41.828 177.035 41.636 176.423 41.42C175.823 41.204 175.331 40.94 174.947 40.628C174.563 40.316 174.281 39.944 174.101 39.512C173.921 39.08 173.831 38.558 173.831 37.946C173.831 37.334 173.951 36.782 174.191 36.29C174.443 35.786 174.797 35.354 175.253 34.994C175.721 34.634 176.285 34.358 176.945 34.166C177.617 33.962 178.379 33.86 179.231 33.86C180.155 33.86 180.965 33.98 181.661 34.22C182.369 34.46 182.957 34.796 183.425 35.228C183.905 35.648 184.265 36.152 184.505 36.74C184.757 37.328 184.901 37.976 184.937 38.684H180.725C180.677 38.168 180.521 37.766 180.257 37.478C180.005 37.178 179.663 37.028 179.231 37.028C178.847 37.028 178.547 37.106 178.331 37.262C178.115 37.418 178.007 37.628 178.007 37.892C178.007 38.192 178.163 38.432 178.475 38.612C178.799 38.78 179.369 38.93 180.185 39.062C181.157 39.218 181.955 39.422 182.579 39.674C183.215 39.926 183.719 40.22 184.091 40.556C184.463 40.892 184.721 41.276 184.865 41.708C185.021 42.128 185.099 42.596 185.099 43.112C185.099 43.748 184.973 44.324 184.721 44.84C184.469 45.356 184.103 45.794 183.623 46.154C183.155 46.514 182.579 46.79 181.895 46.982C181.211 47.174 180.437 47.27 179.573 47.27C178.613 47.27 177.761 47.156 177.017 46.928C176.285 46.7 175.667 46.376 175.163 45.956C174.659 45.524 174.269 45.008 173.993 44.408C173.729 43.796 173.585 43.112 173.561 42.356H177.791ZM189.672 43.814C189.672 44.054 189.75 44.24 189.906 44.372C190.062 44.504 190.314 44.57 190.662 44.57C191.19 44.57 191.61 44.408 191.922 44.084C192.234 43.748 192.39 43.256 192.39 42.608V42.482L190.698 42.878C190.374 42.95 190.122 43.058 189.942 43.202C189.762 43.346 189.672 43.55 189.672 43.814ZM185.676 44.552C185.676 43.652 185.982 42.968 186.594 42.5C187.218 42.032 188.106 41.684 189.258 41.456L192.39 40.826V40.772C192.39 40.328 192.276 40.01 192.048 39.818C191.82 39.614 191.508 39.512 191.112 39.512C190.644 39.512 190.314 39.638 190.122 39.89C189.942 40.13 189.84 40.478 189.816 40.934H185.856C185.916 40.178 186.09 39.536 186.378 39.008C186.666 38.48 187.044 38.054 187.512 37.73C187.98 37.406 188.52 37.172 189.132 37.028C189.744 36.884 190.398 36.812 191.094 36.812C192.714 36.812 193.962 37.166 194.838 37.874C195.726 38.57 196.17 39.638 196.17 41.078V47H192.48L192.426 45.722C192.114 46.166 191.67 46.538 191.094 46.838C190.518 47.126 189.816 47.27 188.988 47.27C188.592 47.27 188.196 47.222 187.8 47.126C187.416 47.042 187.062 46.898 186.738 46.694C186.426 46.49 186.168 46.214 185.964 45.866C185.772 45.506 185.676 45.068 185.676 44.552ZM197.089 37.082H200.779L200.833 38.846C201.085 38.09 201.469 37.562 201.985 37.262C202.501 36.962 203.089 36.812 203.749 36.812C204.505 36.812 205.147 36.998 205.675 37.37C206.203 37.73 206.581 38.264 206.809 38.972C207.049 38.168 207.433 37.61 207.961 37.298C208.489 36.974 209.089 36.812 209.761 36.812C210.769 36.812 211.573 37.142 212.173 37.802C212.773 38.45 213.073 39.38 213.073 40.592V47H209.113V41.78C209.113 41.144 209.047 40.7 208.915 40.448C208.783 40.184 208.525 40.052 208.141 40.052C207.793 40.052 207.523 40.178 207.331 40.43C207.151 40.682 207.061 41.132 207.061 41.78V47H203.101V41.78C203.101 41.144 203.035 40.7 202.903 40.448C202.771 40.184 202.513 40.052 202.129 40.052C201.781 40.052 201.511 40.178 201.319 40.43C201.139 40.682 201.049 41.132 201.049 41.78V47H197.089V37.082ZM213.946 37.082H217.906V42.302C217.906 42.938 217.978 43.388 218.122 43.652C218.266 43.904 218.536 44.03 218.932 44.03C219.304 44.03 219.586 43.904 219.778 43.652C219.97 43.4 220.066 42.95 220.066 42.302V37.082H224.026V47H220.336L220.264 45.218C220.012 45.986 219.622 46.52 219.094 46.82C218.578 47.12 217.984 47.27 217.312 47.27C216.292 47.27 215.476 46.946 214.864 46.298C214.252 45.638 213.946 44.702 213.946 43.49V37.082ZM224.824 42.032C224.824 41.252 224.956 40.544 225.22 39.908C225.496 39.26 225.88 38.708 226.372 38.252C226.864 37.796 227.458 37.442 228.154 37.19C228.85 36.938 229.624 36.812 230.476 36.812C231.34 36.812 232.108 36.938 232.78 37.19C233.464 37.442 234.04 37.802 234.508 38.27C234.976 38.738 235.33 39.302 235.57 39.962C235.822 40.61 235.948 41.336 235.948 42.14V42.86H228.892C228.988 43.352 229.168 43.73 229.432 43.994C229.696 44.258 230.038 44.39 230.458 44.39C231.058 44.39 231.496 44.12 231.772 43.58H235.93C235.618 44.72 234.982 45.62 234.022 46.28C233.074 46.94 231.892 47.27 230.476 47.27C229.624 47.27 228.85 47.144 228.154 46.892C227.458 46.64 226.864 46.286 226.372 45.83C225.88 45.374 225.496 44.828 225.22 44.192C224.956 43.544 224.824 42.824 224.824 42.032ZM232.042 41.222C231.946 40.73 231.766 40.352 231.502 40.088C231.238 39.824 230.896 39.692 230.476 39.692C230.056 39.692 229.708 39.824 229.432 40.088C229.168 40.352 228.988 40.73 228.892 41.222H232.042ZM236.745 33.77H240.705V47H236.745V33.77Z" fill="black"/>
</svg>
