<svg width="125" height="125" viewBox="0 0 125 125" fill="none" xmlns="http://www.w3.org/2000/svg">
<path d="M20.3911 34.5435C19.4083 37.9107 19.2915 41.4715 20.0517 44.8959C17.0828 46.7748 14.6372 49.3742 12.9426 52.4521C11.248 55.53 10.3594 58.9865 10.3594 62.5001C10.3594 66.0136 11.248 69.4701 12.9426 72.5481C14.6372 75.626 17.0828 78.2253 20.0517 80.1042C19.2915 83.5286 19.4083 87.0894 20.3911 90.4566C21.3739 93.8238 23.1911 96.8884 25.674 99.3661C28.1569 101.844 31.2252 103.655 34.5945 104.63C37.9637 105.606 41.5248 105.715 44.9476 104.948C46.829 107.906 49.4263 110.341 52.499 112.028C55.5717 113.715 59.0204 114.599 62.5257 114.599C66.031 114.599 69.4797 113.715 72.5524 112.028C75.6251 110.341 78.2224 107.906 80.1038 104.948C83.5282 105.708 87.089 105.591 90.4562 104.609C93.8234 103.626 96.888 101.809 99.3657 99.3258C101.843 96.8428 103.654 93.7745 104.63 90.4052C105.606 87.036 105.715 83.4749 104.948 80.0521C107.894 78.1682 110.319 75.573 111.998 72.5055C113.678 69.4381 114.558 65.9972 114.558 62.5001C114.558 59.0029 113.678 55.562 111.998 52.4946C110.319 49.4272 107.894 46.8319 104.948 44.948C105.718 41.52 105.61 37.9528 104.631 34.5782C103.653 31.2036 101.837 28.1311 99.353 25.6467C96.8686 23.1623 93.7962 21.3465 90.4215 20.3684C87.0469 19.3902 83.4797 19.2814 80.0517 20.0521C78.1678 17.1058 75.5726 14.6811 72.5051 13.0015C69.4377 11.322 65.9968 10.4417 62.4997 10.4417C59.0025 10.4417 55.5616 11.322 52.4942 13.0015C49.4268 14.6811 46.8315 17.1058 44.9476 20.0521C41.5248 19.2848 37.9637 19.394 34.5945 20.3698C31.2252 21.3456 28.1569 23.1563 25.674 25.634C23.1911 28.1118 21.3739 31.1763 20.3911 34.5435Z" stroke="#F5F5F5" stroke-width="2" stroke-linecap="round" stroke-linejoin="round"/>
<path d="M47.3438 46.875C48.5683 43.3941 50.9852 40.4589 54.1664 38.5893C57.3477 36.7196 61.088 36.0362 64.7249 36.66C68.3618 37.2838 71.6605 39.1746 74.0369 41.9976C76.4132 44.8205 77.7138 48.3934 77.7083 52.0834C77.7083 62.5 62.0833 67.7084 62.0833 67.7084M62.5 88.5417H62.5521" stroke="#F5F5F5" stroke-width="2" stroke-linecap="round" stroke-linejoin="round"/>
</svg>
