<svg width="57" height="57" viewBox="0 0 57 57" fill="none" xmlns="http://www.w3.org/2000/svg">
<path d="M28.5 5.78906C25.2341 5.79236 22.0072 6.50002 19.0396 7.86378C16.072 9.22755 13.4334 11.2153 11.3039 13.6915C9.17433 16.1678 7.6039 19.0741 6.69972 22.2125C5.79553 25.3508 5.57885 28.6472 6.06447 31.8769C6.55009 35.1065 7.72657 38.1935 9.51367 40.9271C11.3008 43.6608 13.6564 45.9768 16.42 47.7173C19.1836 49.4578 22.2901 50.5817 25.5275 51.0125C28.7649 51.4433 32.0572 51.1707 35.1797 50.2134C35.3881 50.1496 35.5777 50.0357 35.7319 49.8817L49.875 35.7274C50.0293 35.5725 50.1432 35.3822 50.2068 35.173C51.2479 31.7766 51.4782 28.1835 50.8793 24.682C50.2803 21.1805 48.8689 17.8682 46.7581 15.011C44.6474 12.1537 41.8962 9.83111 38.7254 8.22957C35.5545 6.62802 32.0524 5.79216 28.5 5.78906ZM47.7531 34.0664L34.0776 47.7442C29.8119 48.9768 25.2576 48.7563 21.1309 47.1174C17.0043 45.4785 13.5396 42.5142 11.282 38.6909C9.02433 34.8675 8.10185 30.4021 8.65967 25.9971C9.21748 21.5921 11.2239 17.4975 14.3633 14.3576C17.5028 11.2177 21.597 9.21056 26.0019 8.65202C30.4068 8.09349 34.8724 9.01524 38.6961 11.2723C42.5198 13.5293 45.4847 16.9935 47.1243 21.1198C48.7639 25.2462 48.9851 29.8006 47.7531 34.0664ZM18.2579 24.0469C18.2579 23.6065 18.3884 23.176 18.6331 22.8099C18.8778 22.4437 19.2255 22.1583 19.6324 21.9898C20.0392 21.8213 20.4869 21.7772 20.9188 21.8631C21.3507 21.949 21.7475 22.1611 22.0588 22.4725C22.3702 22.7838 22.5823 23.1806 22.6682 23.6125C22.7541 24.0444 22.71 24.4921 22.5415 24.8989C22.373 25.3058 22.0876 25.6535 21.7214 25.8982C21.3553 26.1429 20.9248 26.2734 20.4844 26.2734C19.8939 26.2734 19.3276 26.0389 18.91 25.6213C18.4924 25.2037 18.2579 24.6374 18.2579 24.0469ZM38.7422 24.0469C38.7422 24.4872 38.6117 24.9177 38.367 25.2839C38.1223 25.65 37.7746 25.9354 37.3677 26.104C36.9609 26.2725 36.5132 26.3166 36.0813 26.2307C35.6494 26.1447 35.2526 25.9327 34.9413 25.6213C34.6299 25.3099 34.4178 24.9132 34.3319 24.4813C34.246 24.0493 34.2901 23.6017 34.4586 23.1948C34.6271 22.788 34.9125 22.4402 35.2787 22.1956C35.6448 21.9509 36.0753 21.8203 36.5157 21.8203C37.1062 21.8203 37.6725 22.0549 38.0901 22.4725C38.5077 22.89 38.7422 23.4564 38.7422 24.0469ZM38.5619 34.5117C36.3531 38.3325 32.686 40.5234 28.5 40.5234C24.3141 40.5234 20.647 38.3325 18.4382 34.5117C18.2785 34.2064 18.2429 33.8512 18.3389 33.5203C18.4349 33.1893 18.6551 32.9083 18.9534 32.7359C19.2517 32.5634 19.6051 32.5129 19.9398 32.5949C20.2745 32.6769 20.5645 32.885 20.7494 33.1758C22.495 36.1905 25.247 37.8516 28.5 37.8516C31.7531 37.8516 34.5118 36.1905 36.2507 33.1758C36.3342 33.0161 36.4492 32.875 36.5886 32.7609C36.7281 32.6469 36.8892 32.5622 37.0622 32.512C37.2353 32.4618 37.4167 32.4471 37.5956 32.4688C37.7744 32.4906 37.947 32.5482 38.103 32.6384C38.259 32.7286 38.3952 32.8494 38.5033 32.9935C38.6114 33.1377 38.6892 33.3022 38.732 33.4772C38.7749 33.6522 38.7819 33.8341 38.7527 34.0118C38.7234 34.1896 38.6585 34.3597 38.5619 34.5117Z" fill="#FFF200"/>
</svg>
