<svg width="1512" height="41" viewBox="0 0 1512 41" fill="none" xmlns="http://www.w3.org/2000/svg">
<rect width="81" height="20.5" fill="#FFF200"/>
<rect x="109" y="20.5" width="81" height="20.5" fill="#FFF200"/>
<rect x="242" width="81" height="20.5" fill="#FFF200"/>
<rect x="351" y="20.5" width="81" height="20.5" fill="#FFF200"/>
<rect x="484" width="81" height="20.5" fill="#FFF200"/>
<rect x="592" y="20.5" width="81" height="20.5" fill="#FFF200"/>
<rect x="725" width="81" height="20.5" fill="#FFF200"/>
<rect x="835" y="20.5" width="81" height="20.5" fill="#FFF200"/>
<rect x="966" width="81" height="20.5" fill="#FFF200"/>
<rect x="1078" y="20.5" width="81" height="20.5" fill="#FFF200"/>
<rect x="1208" width="81" height="20.5" fill="#FFF200"/>
<rect x="1321" y="20.5" width="81" height="20.5" fill="#FFF200"/>
<rect x="1450" width="81" height="20.5" fill="#FFF200"/>
<rect x="28" y="20.5" width="81" height="20.5" fill="#FD003B"/>
<rect x="161" width="81" height="20.5" fill="#FD003B"/>
<rect x="270" y="20.5" width="81" height="20.5" fill="#FD003B"/>
<rect x="403" width="81" height="20.5" fill="#FD003B"/>
<rect x="511" y="20.5" width="81" height="20.5" fill="#FD003B"/>
<rect x="644" width="81" height="20.5" fill="#FD003B"/>
<rect x="754" y="20.5" width="81" height="20.5" fill="#FD003B"/>
<rect x="885" width="81" height="20.5" fill="#FD003B"/>
<rect x="997" y="20.5" width="81" height="20.5" fill="#FD003B"/>
<rect x="1127" width="81" height="20.5" fill="#FD003B"/>
<rect x="1240" y="20.5" width="81" height="20.5" fill="#FD003B"/>
<rect x="1369" width="81" height="20.5" fill="#FD003B"/>
<rect x="1483" y="20.5" width="81" height="20.5" fill="#FD003B"/>
<rect x="-52" y="20.5" width="81" height="20.5" fill="#68BD45"/>
<rect x="80" width="81" height="20.5" fill="#68BD45"/>
<rect x="189" y="20.5" width="81" height="20.5" fill="#68BD45"/>
<rect x="430" y="20.5" width="81" height="20.5" fill="#68BD45"/>
<rect x="804" width="81" height="20.5" fill="#68BD45"/>
<rect x="563" width="81" height="20.5" fill="#68BD45"/>
<rect x="673" y="20.5" width="81" height="20.5" fill="#68BD45"/>
<rect x="916" y="20.5" width="81" height="20.5" fill="#68BD45"/>
<rect x="1046" width="81" height="20.5" fill="#68BD45"/>
<rect x="322" width="81" height="20.5" fill="#68BD45"/>
<rect x="1402" y="20.5" width="81" height="20.5" fill="#68BD45"/>
<rect x="1288" width="81" height="20.5" fill="#68BD45"/>
<rect x="1159" y="20.5" width="81" height="20.5" fill="#68BD45"/>
</svg>
